<?xml version="1.0" encoding="UTF-8"?>
<svg width="53px" height="60px" viewBox="0 0 53 60" version="1.1" xmlns="http://www.w3.org/2000/svg" xmlns:xlink="http://www.w3.org/1999/xlink">
    <!-- Generator: Sketch 61.2 (89653) - https://sketch.com -->
    <title>Group 8 Copy</title>
    <desc>Created with Sketch.</desc>
    <g id="Page-1" stroke="none" stroke-width="1" fill="none" fill-rule="evenodd">
        <g id="Group-8-Copy" fill="#E30620">
            <path d="M24.8904,46.7595 L16.9794,46.7595 L22.8984,36.795 L24.8904,46.7595 Z M51.7224,24.6705 L52.3539,21.516 L31.9734,21.516 L39.6459,8.595 C44.9319,9.9885 48.9939,14.412 49.8669,19.89 L52.1874,19.89 C51.3279,13.554 46.8264,8.3865 40.8594,6.555 L44.7504,0 L39.6819,0 L36.2049,5.8395 C36.1689,5.8395 36.1329,5.8335 36.0984,5.8335 C27.8679,5.8335 21.0834,11.955 20.0079,19.89 L22.3284,19.89 C23.3214,13.6545 28.4439,8.7765 34.8039,8.1885 L26.8614,21.516 L19.8429,21.516 L20.4729,24.669 L24.9804,24.669 L23.6124,26.9655 L20.9304,26.9655 L21.4284,29.451 L22.1319,29.451 L11.8164,46.7595 L3.4434,46.7595 C1.5489,46.7595 0.0009,48.159 0.0009,49.8675 L0.0009,53.2275 L30.1209,53.2275 L30.1209,50.202 L46.6164,50.202 L50.3064,31.7475 L25.8969,31.7475 L27.2589,29.4525 L50.7669,29.4525 L51.2634,26.967 L28.7349,26.967 L30.0999,24.6705 L51.7224,24.6705 Z" id="Fill-27"></path>
            <polygon id="Fill-29" points="-8.52651283e-14 59.8359 2.343 59.8359 2.343 53.9799 -8.52651283e-14 53.9799"></polygon>
            <polygon id="Fill-31" points="27.7785 59.8359 30.1215 59.8359 30.1215 53.9799 27.7785 53.9799"></polygon>
            <polygon id="Fill-32" points="23.811 59.8359 26.154 59.8359 26.154 53.9799 23.811 53.9799"></polygon>
            <polygon id="Fill-33" points="19.842 59.8359 22.185 59.8359 22.185 53.9799 19.842 53.9799"></polygon>
            <polygon id="Fill-34" points="15.8745 59.8359 18.2175 59.8359 18.2175 53.9799 15.8745 53.9799"></polygon>
            <polygon id="Fill-35" points="11.9055 59.8359 14.2485 59.8359 14.2485 53.9799 11.9055 53.9799"></polygon>
            <polygon id="Fill-36" points="7.938 59.8359 10.281 59.8359 10.281 53.9799 7.938 53.9799"></polygon>
            <polygon id="Fill-37" points="3.969 59.8359 6.312 59.8359 6.312 53.9799 3.969 53.9799"></polygon>
        </g>
    </g>
</svg>