<?xml version="1.0" encoding="UTF-8"?>
<svg width="65px" height="60px" viewBox="0 0 65 60" version="1.1" xmlns="http://www.w3.org/2000/svg" xmlns:xlink="http://www.w3.org/1999/xlink">
    <!-- Generator: Sketch 61.2 (89653) - https://sketch.com -->
    <title>Group Copy</title>
    <desc>Created with Sketch.</desc>
    <g id="Page-1" stroke="none" stroke-width="1" fill="none" fill-rule="evenodd">
        <g id="Group-Copy" fill="#E30620">
            <path d="M62.760885,37.18605 C60.813885,35.9106 59.749635,34.1088 59.157285,32.5314 C62.326935,29.0994 64.221135,24.7335 64.221135,19.97325 C64.221135,8.94135 54.015885,0 41.432985,0 C30.216285,0 20.906985,7.1016 19.012785,16.46205 C20.105085,16.3317 21.208935,16.2657 22.327635,16.2657 C36.410385,16.2657 47.929035,26.3637 48.494985,38.96145 C50.387535,38.4219 52.162935,37.6728 53.806335,36.7389 C57.015585,38.6595 60.485535,38.5935 62.511735,38.31795 C63.089235,38.25195 63.247635,37.5012 62.760885,37.18605" id="Fill-40"></path>
            <path d="M22.3278,55.897545 C18.7242,55.897545 15.213,54.990045 12.20175,53.280645 L11.2167,52.714695 L10.2432,53.293845 C9.2433,53.886195 8.1279,54.280545 6.9036,54.450495 C7.4679,53.674995 7.92825,52.793895 8.2698,51.846795 L8.679,50.729745 L7.87545,49.861845 C5.24535,47.008995 3.85275,43.576995 3.85275,39.933795 C3.85275,31.137645 12.13575,23.998095 22.3146,23.998095 C32.4918,23.998095 40.788,31.164045 40.788,39.960195 C40.788,48.756345 32.505,55.897545 22.3278,55.897545 M22.3278,20.145345 C10.02045,20.145345 8.49986748e-14,29.033895 8.49986748e-14,39.960195 C8.49986748e-14,44.114895 1.48665,48.178845 4.19595,51.531645 C3.69435,52.452345 3.01125,53.188245 2.18295,53.740995 C1.30185,54.318495 0.8811,55.357995 1.1055,56.382645 C1.32825,57.395745 2.15655,58.159695 3.1944,58.303245 C3.90555,58.408845 4.64145,58.448445 5.3658,58.448445 C7.50915,58.448445 9.4941,58.014495 11.2563,57.172995 C14.6223,58.882395 18.43545,59.789895 22.3278,59.789895 C34.63515,59.789895 44.65395,50.901345 44.65395,39.973395 C44.65395,29.047095 34.63515,20.145345 22.3278,20.145345" id="Fill-41"></path>
            <path d="M22.95777,35.56905 C24.29922,35.58225 25.40307,34.4652 25.41627,33.0957 C25.43112,31.7163 24.33882,30.5976 22.97262,30.5844 C21.60477,30.5844 20.48607,31.6767 20.47287,33.05775 C20.47287,34.4256 21.57837,35.55585 22.95777,35.56905" id="Fill-42"></path>
            <path d="M25.91787,46.78476 C25.68027,46.87716 25.45752,47.04876 25.21992,47.13951 C24.91797,47.25831 24.61602,47.36391 24.30087,47.40351 C23.91807,47.44146 23.64252,47.24511 23.55012,46.87716 C23.48412,46.60161 23.44452,46.29801 23.47257,46.02246 C23.53857,45.43011 23.65572,44.85261 23.75967,44.26026 C24.07647,42.49806 24.41802,40.73586 24.71997,38.96046 C24.79917,38.48856 24.89157,38.00181 24.87837,37.51506 C24.86517,36.93591 24.52362,36.66036 23.94447,36.66036 L21.53877,36.66036 L19.26342,36.66036 C19.07862,36.66036 18.88227,36.67356 18.69747,36.69996 C18.34272,36.76596 18.17277,36.93591 18.14637,37.21311 C18.11832,37.46226 18.25197,37.71141 18.58032,37.83021 C18.84267,37.92261 19.11987,37.94901 19.39542,37.98861 C20.02737,38.08101 20.23692,38.30376 20.23692,38.94726 C20.23692,39.05286 20.22372,39.14526 20.21052,39.25086 C19.94817,40.80186 19.65777,42.34131 19.39542,43.89231 C19.25022,44.78661 19.10502,45.66771 18.98787,46.56201 C18.80307,47.86386 20.06532,49.09971 21.05202,49.23006 C21.64272,49.30926 22.24827,49.33566 22.85382,49.32246 C24.14247,49.30926 25.21992,48.75651 26.12742,47.85066 C26.28582,47.69226 26.41782,47.46951 26.46897,47.25831 C26.57457,46.89036 26.28582,46.64121 25.91787,46.78476" id="Fill-43"></path>
        </g>
    </g>
</svg>