<?xml version="1.0" encoding="UTF-8"?>
<svg width="51px" height="52px" viewBox="0 0 51 52" version="1.1" xmlns="http://www.w3.org/2000/svg" xmlns:xlink="http://www.w3.org/1999/xlink">
    <!-- Generator: Sketch 61.2 (89653) - https://sketch.com -->
    <title>Group 5 Copy</title>
    <desc>Created with Sketch.</desc>
    <g id="Page-1" stroke="none" stroke-width="1" fill="none" fill-rule="evenodd">
        <g id="Group-5-Copy" transform="translate(1.000000, 1.000000)">
            <path d="M34.7522628,0.818571918 C33.6071628,-0.321578082 31.4819628,-0.263828082 30.0035628,0.948921918 L18.2407128,10.6146219 C16.7656128,11.8273719 16.6484628,13.8915219 17.9981628,15.2395719 L33.7886628,31.0333719 C35.1301128,32.3748219 37.1975628,32.2692219 38.4119628,30.7908219 L48.1057128,18.9751719 C49.3168128,17.4984219 49.3745628,15.3847719 48.2261628,14.2396719 L34.7522628,0.818571918 Z" id="Stroke-51" stroke="#E30620" stroke-width="1.716"></path>
            <path d="M29.8877328,27.1316169 L8.65058281,48.3687669 L3.46958281,49.2333669 L1.15958281,46.9217169 L0.0128328093,40.9784169 C-0.0597671907,40.6088169 0.182782809,40.3662669 0.560632809,40.4372169 L4.00418281,41.1038169 C4.37873281,41.1764169 4.62458281,40.9338669 4.55198281,40.5560169 L3.88538281,37.1042169 C3.81278281,36.7296669 4.05863281,36.4854669 4.43153281,36.5564169 L8.17703281,37.2791169 C8.54993281,37.3517169 8.79578281,37.1091669 8.72483281,36.7395669 L8.05163281,33.2547669 C7.98068281,32.8835169 8.22653281,32.6426169 8.60108281,32.7135669 L12.1254828,33.3950169 C12.5016828,33.4676169 12.7458828,33.2201169 12.6749328,32.8521669 L12.0792828,29.7633669 C12.0066828,29.3904669 12.2574828,29.1495669 12.6188328,29.2188669 L15.5723328,29.7881169 C15.9435828,29.8590669 16.1910828,29.6198169 16.1234328,29.2370169 L15.4733328,25.5657669 L21.5651328,19.4706669" id="Stroke-52" stroke="#E30620" stroke-width="1.716"></path>
            <line x1="2.13258781" y1="47.8919169" x2="25.9899378" y2="24.0329169" id="Stroke-53" stroke="#E30620" stroke-width="1.716"></line>
            <path d="M36.2846178,8.42886692 C35.4249678,7.56921692 34.0257678,7.57086692 33.1628178,8.43216692 C32.3015178,9.29511692 32.3015178,10.6926669 33.1595178,11.5523169 L37.4759178,15.8687169 C38.3355678,16.7283669 39.7347678,16.7250669 40.5960678,15.8637669 C41.4590178,15.0008169 41.4590178,13.6032669 40.5993678,12.7436169 L36.2846178,8.42886692 Z" id="Stroke-54" stroke="#E30620" stroke-width="1.716"></path>
            <polygon id="Fill-55" fill="#E30620" points="17.4610878 12.7860219 17.9511378 11.0139219 32.2120878 0.133821918 40.6089378 6.88892192 37.6735878 9.51737192 34.9428378 7.92182192 32.9743878 7.92182192 32.2120878 10.1344719 34.2877878 12.7860219 24.2524878 21.0063219"></polygon>
            <polygon id="Stroke-56" stroke="#E30620" stroke-width="0.6864" points="17.4610878 12.7860219 17.9511378 11.0139219 32.2120878 0.133821918 40.6089378 6.88892192 37.6735878 9.51737192 34.9428378 7.92182192 32.9743878 7.92182192 32.2120878 10.1344719 34.2877878 12.7860219 24.2524878 21.0063219"></polygon>
            <polygon id="Fill-57" fill="#E30620" points="23.7243228 20.7330819 34.5516228 31.7913819 38.1172728 31.3557819 48.8241228 17.8802319 48.8241228 15.1989819 40.2144228 6.86318192 37.5777228 9.31343192 41.1301728 13.5423819 41.1301728 15.9068319 39.5329728 16.5486819 37.5777228 15.9068319 33.4213728 12.5771319"></polygon>
            <polygon id="Stroke-58" stroke="#E30620" stroke-width="0.6864" points="23.7243228 20.7330819 34.5516228 31.7913819 38.1172728 31.3557819 48.8241228 17.8802319 48.8241228 15.1989819 40.2144228 6.86318192 37.5777228 9.31343192 41.1301728 13.5423819 41.1301728 15.9068319 39.5329728 16.5486819 37.5777228 15.9068319 33.4213728 12.5771319"></polygon>
            <polygon id="Fill-59" fill="#E30620" points="3.55059781 49.1551569 1.38909781 46.7313069 0.672997809 40.8540069 4.81449781 40.8540069 4.44489781 36.8577069 8.60949781 37.6546569 8.60949781 32.8234569 12.8829978 33.9372069 12.2856978 29.2957569 16.2126978 30.2379069 15.6071478 25.5453069 22.0932978 19.0047069 29.7278478 27.4081569 8.60949781 47.9935569"></polygon>
        </g>
    </g>
</svg>