<?xml version="1.0" encoding="UTF-8"?>
<svg width="65px" height="65px" viewBox="0 0 65 65" version="1.1" xmlns="http://www.w3.org/2000/svg" xmlns:xlink="http://www.w3.org/1999/xlink">
    <!-- Generator: Sketch 61.2 (89653) - https://sketch.com -->
    <title>Group 3 Copy</title>
    <desc>Created with Sketch.</desc>
    <g id="Page-1" stroke="none" stroke-width="1" fill="none" fill-rule="evenodd">
        <g id="Group-3-Copy" fill="#E30620">
            <path d="M29.475,15.8805 L29.475,18.7575 L28.1355,18.7575 C27.396,18.7575 26.796,19.3575 26.796,20.0985 L26.796,24.117 C26.796,24.8565 27.396,25.458 28.1355,25.458 L41.535,25.458 C42.2745,25.458 42.8745,24.8565 42.8745,24.117 L42.8745,20.0985 C42.8745,19.3575 42.2745,18.7575 41.535,18.7575 L40.194,18.7575 L40.194,15.8805 C40.185,7.113 33.0795,0.0105 24.315,0 L6.1284311e-14,0 L6.1284311e-14,10.719 L24.315,10.719 C27.1635,10.722 29.472,13.032 29.475,15.8805" id="Fill-5"></path>
            <path d="M47.5644,36.1758 C49.4139,36.1758 50.9139,37.6758 50.9139,39.5253 C50.9139,41.3763 49.4139,42.8763 47.5644,42.8763 C45.7149,42.8763 44.2149,41.3763 44.2149,39.5253 C44.2149,37.6758 45.7149,36.1758 47.5644,36.1758" id="Fill-7"></path>
            <path d="M43.54485,28.13685 C44.65485,28.13685 45.55485,29.03685 45.55485,30.14685 C45.55485,31.25685 44.65485,32.15685 43.54485,32.15685 C42.43485,32.15685 41.53485,31.25685 41.53485,30.14685 C41.53485,29.03685 42.43485,28.13685 43.54485,28.13685" id="Fill-9"></path>
            <path d="M55.60785,46.89555 C55.57635,46.89555 55.54785,46.90005 55.51635,46.90005 C55.50135,46.90005 55.48635,46.89555 55.46985,46.89555 L43.53585,46.89555 C41.69085,46.89105 40.19235,48.38355 40.18785,50.23005 C40.18485,52.07505 41.67735,53.57355 43.52235,53.57805 L43.53585,53.57805 L47.14785,53.57805 L47.14485,53.59455 L48.90435,53.59455 C50.01435,53.59455 50.91435,54.49305 50.91435,55.60455 C50.91435,56.71455 50.01435,57.61455 48.90435,57.61455 L40.34835,57.61455 C39.80085,57.61005 39.26985,57.41205 38.85435,57.05205 L26.44185,43.96905 C24.98235,42.50955 22.61535,42.51105 21.15585,43.97055 C21.07035,44.05605 20.98785,44.14755 20.91135,44.24055 C19.70535,45.79305 19.86135,48.00105 21.27285,49.36605 L35.46435,63.22005 C36.16635,63.92055 37.11585,64.31205 38.10735,64.31355 L55.50885,64.31355 C55.54035,64.31355 55.57185,64.30455 55.60335,64.30305 L55.60785,64.30305 C60.41535,64.30305 64.31235,60.40755 64.31235,55.60005 C64.31235,50.79255 60.41535,46.89555 55.60785,46.89555" id="Fill-11"></path>
            <path d="M22.7763,34.83705 C24.2568,34.83705 25.4568,36.03705 25.4568,37.51605 C25.4568,38.99505 24.2568,40.19505 22.7763,40.19505 C21.2973,40.19505 20.0973,38.99505 20.0973,37.51605 C20.0973,36.03705 21.2973,34.83705 22.7763,34.83705" id="Fill-13"></path>
            <path d="M34.55805,29.62065 C33.47805,31.08915 29.6335036,36.51465 29.6335036,38.99265 C29.62155,41.86515 31.94055,44.20515 34.81305,44.2157086 C37.68555,44.22915 40.02555,41.90865 40.03605,39.03615 L40.03605,38.99265 C40.03605,36.51465 36.19155,31.08915 35.11155,29.62065 C35.00505,29.46615 34.79205,29.43015 34.63905,29.53815 C34.60755,29.56215 34.58055,29.58915 34.55805,29.62065" id="Fill-15"></path>
        </g>
    </g>
</svg>