<?xml version="1.0" encoding="UTF-8"?>
<svg width="46px" height="42px" viewBox="0 0 46 42" version="1.1" xmlns="http://www.w3.org/2000/svg" xmlns:xlink="http://www.w3.org/1999/xlink">
    <!-- Generator: Sketch 61.2 (89653) - https://sketch.com -->
    <title>Group 6 Copy</title>
    <desc>Created with Sketch.</desc>
    <g id="Page-1" stroke="none" stroke-width="1" fill="none" fill-rule="evenodd">
        <g id="Group-6-Copy" fill="#E30620">
            <path d="M23.7428617,34.2134345 C31.3583617,38.2829345 36.4358617,40.4234345 41.9288617,34.6229345 C42.7748617,33.7649345 44.0423617,33.7634345 44.8898617,34.4069345 C45.7343617,35.0504345 45.7358617,36.3359345 45.1028617,37.1954345 C37.0763617,45.5714345 28.6133617,41.0744345 21.8423617,37.6484345 C14.2253617,33.5789345 9.14936166,31.4369345 3.65486166,37.2374345 C2.81186166,38.0954345 1.54136166,38.0969345 0.695361656,37.4534345 C-0.150638344,36.5969345 -0.152138344,35.5244345 0.480861656,34.6664345 C8.50886166,26.2889345 16.9718617,30.5714345 23.7428617,34.2134345" id="Fill-60"></path>
            <path d="M23.7266617,19.1943845 C31.3436617,23.2623845 36.4211617,25.4043845 41.9126617,19.6038845 C42.7586617,18.7443845 44.0261617,18.7443845 44.8736617,19.3878845 C45.7196617,20.0298845 45.7211617,21.3168845 45.0881617,22.1763845 C37.0616617,30.5523845 28.5971617,26.0553845 21.8261617,22.6278845 C14.2106617,18.5598845 9.13316166,16.4178845 3.64016166,22.2183845 C2.79566166,23.0763845 1.52666166,23.0778845 0.680661656,22.4343845 C-0.166838344,21.5778845 -0.168338344,20.5053845 0.466161656,19.6458845 C8.49416166,11.2698845 16.9556617,15.7668845 23.7266617,19.1943845" id="Fill-61"></path>
            <path d="M23.7119617,4.38923447 C31.3289617,8.45723447 36.4064617,10.5992345 41.8979617,4.79873447 C42.7439617,3.94073447 44.0114617,3.93923447 44.8589617,4.58273447 C45.7049617,5.22623447 45.7064617,6.51323447 45.0734617,7.37123447 C37.0469617,15.7472345 28.5824617,11.2502345 21.8114617,7.82423447 C14.1959617,3.75473447 9.11846166,1.61273447 3.62546166,7.41323447 C2.78096166,8.27273447 1.51196166,8.27273447 0.665961656,7.63073447 C-0.181538344,6.55823447 -0.183038344,5.70023447 0.451461656,4.84223447 C8.47946166,-3.53526553 16.9409617,0.747234472 23.7119617,4.38923447" id="Fill-62"></path>
        </g>
    </g>
</svg>