<?xml version="1.0" encoding="UTF-8"?>
<svg width="141px" height="171px" viewBox="0 0 141 171" version="1.1" xmlns="http://www.w3.org/2000/svg" xmlns:xlink="http://www.w3.org/1999/xlink">
    <!-- Generator: Sketch 61.2 (89653) - https://sketch.com -->
    <title>Recurso 4@3x</title>
    <desc>Created with Sketch.</desc>
    <g id="Page-1" stroke="none" stroke-width="1" fill="none" fill-rule="evenodd">
        <g id="Carglass_Landing_Seguridad_Covid19_Desktop_01" transform="translate(-632.000000, -408.000000)" fill-rule="nonzero">
            <g id="Recurso-4" transform="translate(631.000000, 407.000000)">
                <path d="M125,92.84 C120.488785,93.0505733 116.271506,95.1392687 113.37,98.6 L106.15,107.32 L106.15,28.18 C106.595246,23.9252558 104.696859,19.7639401 101.191735,17.3113492 C97.686612,14.8587584 93.1267308,14.5011206 89.2820992,16.3772601 C85.4374675,18.2533996 82.9135291,22.0678663 82.69,26.34 C82.6499953,26.952681 82.6499953,27.567319 82.69,28.18 L82.69,77.3 C82.6926618,77.77912 82.5041952,78.2395302 82.1663408,78.5792616 C81.8284864,78.918993 81.3691274,79.1100074 80.89,79.11 L80.8,79.11 C79.8042721,79.1044987 78.9999848,78.2957431 79,77.3 L79,13.69 C79.508102,7.20065419 74.6593458,1.52810197 68.17,1.02 C61.6806542,0.51189803 56.008102,5.36065419 55.5,11.85 C55.4499819,12.4623136 55.4499819,13.0776864 55.5,13.69 L55.5,77.3 C55.5026618,77.77912 55.3141952,78.2395302 54.9763408,78.5792616 C54.6384864,78.918993 54.1791274,79.1100074 53.7,79.11 L53.61,79.11 C53.1299582,79.11 52.6695776,78.9193041 52.3301367,78.5798633 C51.9906959,78.2404224 51.8,77.7800418 51.8,77.3 L51.8,24.55 C51.2955043,18.4463224 46.1944915,13.749536 40.07,13.749536 C33.9455085,13.749536 28.8444957,18.4463224 28.34,24.55 L28.34,77.27 C28.3453451,77.7269755 28.1675473,78.1670764 27.846279,78.4921023 C27.5250106,78.8171282 27.0870068,79.0000313 26.63,79 L26.3,79 C25.3081599,78.9945352 24.5054648,78.1918401 24.5,77.2 L24.5,42.65 C25.0081019,36.1606543 20.1593457,30.4881021 13.67,29.9800002 C7.18065424,29.4718982 1.50810206,34.3206543 1,40.81 C0.949981872,41.4223136 0.949981872,42.0376864 1,42.65 L1,127.89 C0.999995098,139.38346 5.56849029,150.405594 13.6993442,158.528946 C21.8301981,166.652297 32.8565449,171.210615 44.35,171.200018 L74.15,171.200018 C86.9292033,171.197523 99.0546792,165.550191 107.28,155.77 L138,119.28 C142.10283,114.394548 142.933941,107.547333 140.119015,101.822209 C137.30409,96.0970841 131.37418,92.5741235 125,92.84 Z" id="Path" fill="#E40520"></path>
                <path d="M10.06,112.35 L13.68,108 C15.808264,109.787334 18.4909351,110.780523 21.27,110.81 C23.01,110.81 23.95,110.21 23.95,109.14 C23.95,108.07 23.18,107.63 20,106.9 C15,105.76 11.17,104.35 11.17,99.47 C11.17,95.12 14.61,91.97 20.23,91.97 C23.709823,91.8353599 27.124936,92.9371235 29.87,95.08 L26.63,99.7 C24.7265361,98.2856701 22.4396697,97.4803863 20.07,97.39 C18.49,97.39 17.73,98.06 17.73,98.96 C17.73,100.03 18.53,100.5 21.73,101.24 C27.12,102.41 30.47,104.15 30.47,108.6 C30.47,113.38 26.69,116.23 21,116.23 C17.0024174,116.31267 13.1121873,114.932954 10.06,112.35 Z" id="Path" fill="#FFFFFF"></path>
                <polygon id="Path" fill="#FFFFFF" points="38.7 98.09 31.7 98.09 31.7 92.4 52.22 92.4 52.22 98.09 45.22 98.09 45.22 115.83 38.7 115.83"></polygon>
                <path d="M53.26,104.11 C53.2827283,100.806302 54.6367608,97.6513613 57.0157714,95.3589286 C59.394782,93.0664959 62.5977283,91.8302969 65.9,91.93 C73.13,91.93 78.49,97.32 78.49,104.11 C78.4673418,107.415487 77.111939,110.572008 74.7307346,112.864741 C72.3495302,115.157474 69.1439767,116.39245 65.84,116.29 C58.61,116.29 53.26,110.91 53.26,104.11 Z M71.86,104.11 C71.9249088,102.470111 71.3241079,100.87363 70.194147,99.6834048 C69.064186,98.4931793 67.5010472,97.8103103 65.86,97.79 C62.31,97.79 59.93,100.67 59.93,104.11 C59.8651253,105.75083 60.4656275,107.348325 61.5952947,108.540123 C62.724962,109.731922 64.2880486,110.417014 65.93,110.44 C69.48,110.44 71.86,107.56 71.86,104.11 Z" id="Shape" fill="#FFFFFF"></path>
                <path d="M81.86,92.4 L91.86,92.4 C97.78,92.4 101.6,95.4 101.6,100.7 C101.6,106.22 97.35,109.13 91.52,109.13 L88.35,109.13 L88.35,115.83 L81.86,115.83 L81.86,92.4 Z M91.43,104.05 C93.74,104.05 95.15,102.84 95.15,100.94 C95.15,99.04 93.74,97.86 91.4,97.86 L88.35,97.86 L88.35,104.05 L91.43,104.05 Z" id="Shape" fill="#FFFFFF"></path>
                <path d="M10.83,130.24 C10.7936318,127.488739 11.8801981,124.841501 13.8389682,122.909149 C15.7977383,120.976798 18.4594861,119.926277 21.21,120 C24.5017546,119.86886 27.6282355,121.445332 29.48,124.17 L25.48,127.26 C24.4928017,125.844236 22.8759626,125.000343 21.15,125 C18.4,125 16.45,127.34 16.45,130.26 C16.45,133.18 18.4,135.52 21.15,135.52 C22.9348228,135.509157 24.5980778,134.613846 25.59,133.13 L29.7,136 C27.7868283,138.916269 24.4851444,140.616446 21,140.48 C18.2763607,140.527103 15.6513802,139.461057 13.7318059,137.52827 C11.8122317,135.595483 10.7642156,132.963252 10.83,130.24 Z" id="Path" fill="#FFFFFF"></path>
                <polygon id="Path" fill="#FFFFFF" points="46 120.4 52.11 120.4 56.58 132.86 61.05 120.4 67.05 120.4 59.05 140.22 54 140.22"></polygon>
                <polygon id="Path" fill="#FFFFFF" points="69.09 120.4 74.57 120.4 74.57 140.08 69.09 140.08"></polygon>
                <path d="M78.17,120.4 L85.77,120.4 C92.77,120.4 96.87,124.4 96.87,130.18 C96.87,135.96 92.74,140.08 85.65,140.08 L78.17,140.08 L78.17,120.4 Z M85.85,135.25 C89.11,135.25 91.28,133.45 91.28,130.25 C91.28,127.05 89.11,125.25 85.85,125.25 L83.63,125.25 L83.63,135.32 L85.85,135.25 Z" id="Shape" fill="#FFFFFF"></path>
                <polygon id="Path" fill="#FFFFFF" points="61.08 147 57.76 147.76 56.76 143.54 62.52 141.91 66.52 141.91 66.52 161.73 61.08 161.73"></polygon>
                <path d="M69.85,159.82 L72.41,156.05 C73.5809691,157.06688 75.0791267,157.627801 76.63,157.63 C78.88,157.63 80.08,156.05 80.34,153.52 C79.2162963,154.578544 77.7235465,155.156267 76.18,155.13 C72.35,155.13 69.57,152.76 69.57,148.85 C69.57,144.5 72.91,141.68 77.41,141.68 C79.6507439,141.54094 81.8410277,142.384199 83.41,143.99 C84.84,145.4 85.77,147.65 85.77,151.33 C85.77,157.77 82.57,162.16 76.66,162.16 C74.1864931,162.198549 71.7774023,161.370756 69.85,159.82 Z M80.42,148.6 C80.4360375,147.862281 80.1402448,147.152 79.6053201,146.643727 C79.0703954,146.135453 78.3459377,145.876314 77.61,145.93 C76.1731074,146.016978 75.0684379,147.235137 75.1219479,148.673664 C75.1754579,150.112192 76.3675751,151.244915 77.8069586,151.224902 C79.2463421,151.204889 80.4065056,150.039459 80.42,148.6 L80.42,148.6 Z" id="Shape" fill="#FFFFFF"></path>
                <path d="M49.83,130.47 L46.77,130.13 C46.7304239,129.228351 46.5411757,128.33956 46.21,127.5 L47.21,126.69 C47.8076717,126.372483 48.1618464,125.73235 48.1133385,125.057313 C48.0648307,124.382275 47.6227684,123.79936 46.9858386,123.57056 C46.3489089,123.341761 45.6369676,123.510133 45.17,124 L44.28,124.69 C43.6144088,124.046532 42.8431846,123.522234 42,123.14 L42.25,120.97 C42.3666609,120.340529 42.1219457,119.698619 41.615848,119.306561 C41.1097502,118.914504 40.4270512,118.837978 39.8467099,119.108251 C39.2663686,119.378524 38.8856036,119.950322 38.86,120.59 L38.63,122.5 C37.3638385,122.538704 36.1256098,122.881704 35.02,123.5 L32.74,120.83 C32.1146175,120.215897 31.1261659,120.174074 30.451145,120.733157 C29.776124,121.292239 29.6331177,122.271185 30.12,123 L30.12,123 L32.42,125.69 C31.8284832,126.488827 31.3910152,127.390892 31.13,128.35 L29.33,128.16 C28.7005288,128.043339 28.0586186,128.288054 27.6665615,128.794152 C27.2745043,129.30025 27.1979776,129.982949 27.468251,130.56329 C27.7385244,131.143631 28.3103218,131.524396 28.95,131.55 L28.95,131.55 L30.95,131.78 C31.0964379,132.636522 31.380081,133.463814 31.79,134.23 L30.35,135.33 C29.6016542,135.907138 29.4628625,136.981654 30.0400001,137.73 C30.6171376,138.478346 31.6916542,138.617138 32.44,138.04 L34.04,136.81 C34.8523078,137.414205 35.7719155,137.858738 36.75,138.12 L36.53,139.91 C36.4058119,140.846102 37.0639167,141.705668 38,141.83 L38.21,141.83 C39.0756112,141.830331 39.8032553,141.180188 39.9,140.32 L40.14,138.32 C40.9606811,138.17917 41.7538546,137.909154 42.49,137.52 L43.78,139 C44.3957975,139.71797 45.4770298,139.800797 46.195,139.185 C46.9129702,138.569203 46.9957975,137.48797 46.38,136.77 L45.13,135.33 C45.5381846,134.77475 45.8742057,134.169912 46.13,133.53 L49.39,133.89 L49.58,133.89 C50.4637965,133.861573 51.1801502,133.164026 51.2320753,132.281299 C51.2840005,131.398571 50.6543685,130.621849 49.78,130.49 L49.83,130.47 Z M36.54,130.47 C35.2807908,130.47 34.26,129.449209 34.26,128.19 C34.26,126.930791 35.2807908,125.91 36.54,125.91 C37.7992092,125.91 38.82,126.930791 38.82,128.19 C38.8144942,129.445302 37.7953143,130.460012 36.54,130.46 L36.54,130.47 Z M40.54,135.02 C39.5955931,135.02 38.83,134.254407 38.83,133.31 C38.83,132.365593 39.5955931,131.6 40.54,131.6 C41.4844069,131.6 42.25,132.365593 42.25,133.31 C42.247398,133.764378 42.0630033,134.198804 41.7379687,134.516323 C41.4129341,134.833842 40.9743145,135.008026 40.52,135 L40.54,135.02 Z" id="Shape" fill="#242527"></path>
            </g>
        </g>
    </g>
</svg>