<?xml version="1.0" encoding="UTF-8"?>
<svg width="55px" height="46px" viewBox="0 0 55 46" version="1.1" xmlns="http://www.w3.org/2000/svg" xmlns:xlink="http://www.w3.org/1999/xlink">
    <!-- Generator: Sketch 61.2 (89653) - https://sketch.com -->
    <title>Group 9 Copy</title>
    <desc>Created with Sketch.</desc>
    <g id="Page-1" stroke="none" stroke-width="1" fill="none" fill-rule="evenodd">
        <g id="Group-9-Copy" fill="#E30620">
            <path d="M47.109,41.6145196 L50.733,41.6145196 L50.733,27.1185196 L47.109,27.1185196 L47.109,41.6145196 Z M3.624,41.6145196 L7.248,41.6145196 L7.248,27.1185196 L3.624,27.1185196 L3.624,41.6145196 Z M39.8625,41.6145196 L43.485,41.6145196 L43.485,27.1185196 L39.8625,27.1185196 L39.8625,41.6145196 Z M32.6145,41.6145196 L36.2385,41.6145196 L36.2385,27.1185196 L32.6145,27.1185196 L32.6145,41.6145196 Z M25.3665,41.6145196 L28.9905,41.6145196 L28.9905,27.1185196 L25.3665,27.1185196 L25.3665,41.6145196 Z M18.1185,41.6145196 L21.7425,41.6145196 L21.7425,27.1185196 L18.1185,27.1185196 L18.1185,41.6145196 Z M10.872,41.6145196 L14.4945,41.6145196 L14.4945,27.1185196 L10.872,27.1185196 L10.872,41.6145196 Z M27.1785,3.56401957 C38.187,3.56401957 47.109,12.4875196 47.109,23.4945196 L7.248,23.4945196 C7.248,12.4875196 16.17,3.56401957 27.1785,3.56401957 L27.1785,3.56401957 Z M21.435,0.682519566 C12.2505,2.98201957 3.639,12.7095196 3.624,23.4945196 L1.812,23.4945196 C0.8115,23.4945196 4.26325641e-14,24.3060196 4.26325641e-14,25.3065196 L4.26325641e-14,43.4265196 C4.26325641e-14,44.4270196 0.8115,45.2385196 1.812,45.2385196 L52.545,45.2385196 C53.5455,45.2385196 54.357,44.4270196 54.357,43.4265196 L54.357,25.3065196 C54.357,24.3060196 53.5455,23.4945196 52.545,23.4945196 L50.733,23.4945196 C50.7195,12.7095196 42.6435,2.96701957 32.922,0.682519566 C30.1275,0.0255195663 25.959,-0.449980434 21.435,0.682519566 L21.435,0.682519566 Z" id="Fill-38"></path>
            <path d="M27.17895,3.56341957 C38.18745,3.56341957 47.10945,12.4869196 47.10945,23.4939196 L7.24845,23.4939196 C7.24845,12.4869196 16.17045,3.56341957 27.17895,3.56341957" id="Fill-39"></path>
        </g>
    </g>
</svg>