<?xml version="1.0" encoding="UTF-8"?>
<svg width="57px" height="57px" viewBox="0 0 57 57" version="1.1" xmlns="http://www.w3.org/2000/svg" xmlns:xlink="http://www.w3.org/1999/xlink">
    <!-- Generator: Sketch 61.2 (89653) - https://sketch.com -->
    <title>Fill 66 Copy</title>
    <desc>Created with Sketch.</desc>
    <g id="Page-1" stroke="none" stroke-width="1" fill="none" fill-rule="evenodd">
        <g id="Fill-66-Copy" fill="#E30620">
            <path d="M32.49855,30.4665 C32.49855,32.70945 30.68025,34.529175 28.435875,34.529175 C26.192925,34.529175 24.374625,32.70945 24.374625,30.4665 C24.374625,28.22355 26.192925,26.403825 28.435875,26.403825 C30.68025,26.406675 32.497125,28.224975 32.49855,30.4665 L32.49855,30.4665 Z M33.514575,48.100875 L33.514575,47.7318 C33.52455,39.491025 40.0767,32.74935 48.314625,32.50425 C46.7685,40.1052 41.0229,46.1586 33.514575,48.100875 L33.514575,48.100875 Z M28.435875,36.5598 C25.07145,36.5598 22.342575,33.830925 22.342575,30.4665 C22.342575,27.102075 25.07145,24.3732 28.435875,24.3732 C31.801725,24.3732 34.5306,27.102075 34.5306,30.4665 C34.526325,33.8295 31.8003,36.555525 28.435875,36.5598 L28.435875,36.5598 Z M23.3586,48.100875 C15.84885,46.1586 10.1061,40.1052 8.55855,32.50425 C16.79505,32.74935 23.348625,39.491025 23.3586,47.7318 L23.3586,48.100875 Z M28.435875,8.12389863 C37.307925,8.109675 45.153975,13.872375 47.793075,22.342575 L41.1312,22.342575 L39.607875,20.310525 C38.646,19.036575 37.142625,18.284175 35.546625,18.2799 L21.327975,18.2799 C19.73055,18.28275 18.22575,19.036575 17.2653,20.310525 L15.741975,22.342575 L9.078675,22.342575 C11.7192,13.872375 19.566675,8.1111 28.435875,8.12389863 L28.435875,8.12389863 Z M28.435875,-2.0250468e-14 C12.732375,-2.0250468e-14 -1.0125234e-13,12.73095 -1.0125234e-13,28.435875 C-1.0125234e-13,44.1408 12.732375,56.87175 28.435875,56.87175 C44.1408,56.87175 56.87175,44.1408 56.87175,28.435875 C56.85465,12.738075 44.133675,0.0171 28.435875,-2.0250468e-14 L28.435875,-2.0250468e-14 Z" id="Fill-64"></path>
        </g>
    </g>
</svg>