<?xml version="1.0" encoding="UTF-8"?>
<svg width="72px" height="72px" viewBox="0 0 72 72" version="1.1" xmlns="http://www.w3.org/2000/svg" xmlns:xlink="http://www.w3.org/1999/xlink">
    <!-- Generator: Sketch 61.2 (89653) - https://sketch.com -->
    <title>Fill 69 Copy</title>
    <desc>Created with Sketch.</desc>
    <g id="Page-1" stroke="none" stroke-width="1" fill="none" fill-rule="evenodd">
        <g id="Fill-69-Copy" fill="#E30620">
            <path d="M70.5,48 L52.5,48 C51.672,48 51,48.672 51,49.5 L51,58.5 C51,59.328 51.672,60 52.5,60 L55.5,60 L55.5,70.5 C55.5,71.328 56.172,72 57,72 L66,72 C66.8295,72 67.5,71.328 67.5,70.5 L67.5,60 L70.5,60 C71.3295,60 72,59.328 72,58.5 L72,49.5 C72,48.672 71.3295,48 70.5,48 L70.5,48 Z M55.5,39 C55.5,42.3135 58.1865,45 61.5,45 C64.8135,45 67.5,42.3135 67.5,39 C67.5,35.6865 64.8135,33 61.5,33 C58.1865,33 55.5,35.6865 55.5,39 L55.5,39 Z M16.5,37.5 L16.5,27 L19.5,27 C20.3295,27 21,26.328 21,25.5 L21,16.5 C21,15.672 20.3295,15 19.5,15 L1.5,15 C0.672,15 0,15.672 0,16.5 L0,25.5 C0,26.328 0.672,27 1.5,27 L4.5,27 L4.5,37.5 C4.5,38.328 5.172,39 6,39 L15,39 C15.8295,39 16.5,38.328 16.5,37.5 L16.5,37.5 Z M10.5,12 C13.8135,12 16.5,9.3135 16.5,6 C16.5,2.6865 13.8135,0 10.5,0 C7.1865,0 4.5,2.6865 4.5,6 C4.5,9.3135 7.1865,12 10.5,12 L10.5,12 Z M48.675,59.67 L16.725,52.395 L22.23,51.345 C23.058,51.1905 23.6055,50.3955 23.4525,49.5675 C23.2995,48.7395 22.503,48.1905 21.675,48.345 L12.825,50.1 C12.4395,50.178 12.1005,50.4045 11.88,50.73 C11.655,51.0585 11.568,51.4635 11.64,51.855 L13.35,60.69 C13.488,61.4055 14.121,61.9185 14.85,61.905 L15.135,61.905 C15.9465,61.746 16.476,60.9615 16.32,60.15 L15.36,55.185 L48.075,62.685 C48.1905,62.6985 48.306,62.6985 48.42,62.685 C49.248,62.7765 49.9935,62.178 50.0865,61.35 C50.1765,60.522 49.5795,59.7765 48.75,59.685 L48.675,59.67 Z M59.175,21.9 L50.325,23.61 L50.04,23.61 C49.212,23.685 48.48,23.073 48.4065,22.245 C48.3315,21.4155 48.942,20.685 49.77,20.61 L55.2765,19.56 L23.2815,12.33 C22.452,12.144 21.9315,11.3205 22.1175,10.4925 C22.3035,9.663 23.127,9.144 23.955,9.33 L56.67,16.83 L55.7115,11.865 C55.554,11.0535 56.085,10.269 56.895,10.11 C57.7065,9.954 58.491,10.4835 58.6515,11.295 L60.36,20.13 C60.4335,20.5215 60.3465,20.9265 60.12,21.255 C59.904,21.5865 59.5635,21.8175 59.175,21.9 L59.175,21.9 Z" id="Fill-65"></path>
        </g>
    </g>
</svg>