<?xml version="1.0" encoding="UTF-8"?>
<svg width="53px" height="56px" viewBox="0 0 53 56" version="1.1" xmlns="http://www.w3.org/2000/svg" xmlns:xlink="http://www.w3.org/1999/xlink">
    <!-- Generator: Sketch 61.2 (89653) - https://sketch.com -->
    <title>Group 2 Copy</title>
    <desc>Created with Sketch.</desc>
    <g id="Page-1" stroke="none" stroke-width="1" fill="none" fill-rule="evenodd">
        <g id="Group-2-Copy" fill="#E30620">
            <path d="M45.5815963,46.1207364 C45.2200963,46.4432364 45.0085963,46.9037364 45.0010963,47.3897364 L44.9200963,52.3097364 L29.3815963,52.0532364 L29.4640963,47.1062364 C29.4760963,46.3292364 28.9720963,45.6377364 28.2280963,45.4127364 C27.2725963,45.1382364 26.4130963,44.6057364 25.7410963,43.8752364 L16.2730963,29.4947364 C15.9745963,28.9997364 15.8920963,28.4042364 16.0465963,27.8492364 C16.1650963,27.3527364 16.4710963,26.9222364 16.9000963,26.6462364 C18.0565963,26.0057364 19.0480963,26.8652364 19.6660963,27.6512364 C23.0725963,32.0087364 24.5695963,32.6252364 25.6855963,32.6447364 C26.3335963,32.6612364 26.9575963,32.4032364 27.4045963,31.9352364 C27.9085963,31.3607364 28.1695963,30.6137364 28.1335963,29.8502364 L28.4755963,9.22223644 C28.4875963,8.49923644 29.0830963,7.92473644 29.8045963,7.93523644 C30.5245963,7.95773644 31.0945963,8.54723644 31.0915963,9.26573644 L30.8710963,22.5947364 C30.8560963,23.5547364 31.6210963,24.3452364 32.5810963,24.3617364 C33.5425963,24.3767364 34.3330963,23.6117364 34.3495963,22.6517364 L34.6435963,4.75223644 C34.6660963,4.03523644 35.2540963,3.46523644 35.9710963,3.46673349 C36.6940963,3.47873644 37.2700963,4.07273644 37.2580963,4.79573644 L37.1830963,9.36623644 C37.1815963,9.41723644 37.2055963,9.46073644 37.2085963,9.50873644 L36.9895963,22.7237364 C36.9760963,23.6837364 37.7395963,24.4742364 38.7010963,24.4907364 C39.6610963,24.5057364 40.4515963,23.7407364 40.4680963,22.7807364 L40.6870963,9.45773644 C40.6885963,9.42773644 40.6735963,9.40223644 40.6750963,9.37373644 C40.7020963,8.65373644 41.3080963,8.09273644 42.0280963,8.12123644 C42.7480963,8.14973644 43.3090963,8.75573644 43.2805963,9.47573644 L43.1800963,15.5612364 C43.1890963,15.6527364 43.2055963,15.7427364 43.2310963,15.8312364 L43.1140963,22.8212364 C43.0990963,23.7812364 43.8640963,24.5717364 44.8240963,24.5882364 C45.7855963,24.6032364 46.5760963,23.8382364 46.5925963,22.8782364 L46.7155963,15.3497364 C46.8430963,14.7497364 47.3755963,14.3222364 47.9875963,14.3267364 C48.7060963,14.3492364 49.2760963,14.9387364 49.2731081,15.6557364 C49.2190963,18.8957364 49.1890963,21.7787364 49.1650963,24.3497364 C49.0000963,39.5252364 48.8395963,43.2152364 45.5815963,46.1207364 M16.0120963,45.2117364 C15.0550963,44.9357364 14.1925963,44.4017364 13.5205963,43.6667364 L3.73759635,28.9607364 C3.43759635,28.4657364 3.35659635,27.8702364 3.50959635,27.3152364 C3.62959635,26.8187364 3.93559635,26.3882364 4.36459635,26.1122364 C4.81309635,25.8632364 5.74309635,25.3457364 7.13059635,27.1172364 C10.2385963,31.0952364 12.1750963,32.5577364 13.9045963,32.2067364 L22.5130963,45.2792364 L20.7520963,45.2492364 C19.7935963,45.2342364 19.0015963,45.9992364 18.9865963,46.9607364 C18.9700963,47.9207364 19.7365963,48.7112364 20.6950963,48.7277364 L25.9570963,48.8132364 L25.9045963,51.9962364 L17.1670963,51.8522364 L17.2465963,46.9052364 C17.2600963,46.1282364 16.7560963,45.4367364 16.0120963,45.2117364 M17.5885963,7.73423644 C18.3055963,7.75523644 18.8770963,8.34473644 18.8725963,9.06473644 L18.7120963,18.9152364 C18.6955963,19.8752364 19.4605963,20.6672364 20.4220963,20.6837364 C21.3805963,20.6987364 22.1740963,19.9337364 22.1875963,18.9722364 L22.4260963,4.54223644 C22.4530963,3.82823644 23.0410963,3.26273644 23.7550963,3.26423346 C24.4780963,3.27773644 25.0540963,3.87173644 25.0435963,4.59323644 L24.9685963,9.16523644 C24.9670963,9.21173644 24.9895963,9.25373644 24.9925963,9.29873644 L24.6805963,28.1747364 C23.8720963,27.3347364 23.1130963,26.4512364 22.4020963,25.5272364 C21.3790963,23.9942364 19.6960963,23.0297364 17.8555963,22.9247364 C17.2270963,22.9307364 16.6045963,23.0552364 16.0210963,23.2907364 L16.2565963,9.03323644 C16.2625963,8.31023644 16.8535963,7.72823644 17.5750963,7.73273644 C17.5795963,7.73273644 17.5840963,7.73423644 17.5885963,7.73423644 M52.6360963,24.3932364 C52.6615963,21.8252364 52.6915963,18.9497364 52.7440963,15.7172364 C52.7860963,13.0727364 50.6755963,10.8962364 48.0310963,10.8557364 C47.5930963,10.8482364 47.1580963,10.9022364 46.7365963,11.0132364 L46.7590963,9.52523644 C46.8040963,6.88223644 44.6995963,4.70573644 42.0565963,4.66073644 C41.6155963,4.65323644 41.1760963,4.70723644 40.7500963,4.81973644 C40.6720963,2.17823644 38.4640963,0.0992364418 35.8210963,0.180236442 C33.3520963,0.253736442 31.3450963,2.19623644 31.1875963,4.66223644 C30.7645963,4.53623644 30.3250963,4.47173644 29.8825963,4.46723644 C29.4295963,4.46573644 28.9780963,4.53023644 28.5430963,4.65773644 C28.4725963,2.01623644 26.2720963,-0.0687635582 23.6290963,0.00173644184 C21.1585963,0.0677364418 19.1440963,2.00273644 18.9820963,4.46873644 C16.4515963,3.70823644 13.7830963,5.14223644 13.0225963,7.67273644 C12.8950963,8.09423644 12.8260963,8.53223644 12.8200963,8.97323644 L12.5065963,27.9482364 C11.5705963,27.0242364 10.7020963,26.0342364 9.90709635,24.9857364 C8.39959635,22.5407364 5.24359635,21.7022364 2.72059635,23.0747364 C1.47409635,23.8052364 0.566596348,24.9977364 0.196096348,26.3942364 C-0.208903652,27.8882364 0.0190963481,29.4827364 0.827596348,30.8027364 L10.6795963,45.6662364 C11.4985963,46.6967364 12.5500963,47.5157364 13.7500963,48.0557364 L13.6600963,53.5322364 C13.6435963,54.4937364 14.4100963,55.2842364 15.3685963,55.3007364 L46.6015963,55.8154979 C47.5615963,55.8317364 48.3535963,55.0652364 48.3685963,54.1052364 L48.4660963,48.1787364 C52.4290963,44.2112364 52.4860963,38.9027364 52.6360963,24.3932364" id="Fill-1"></path>
            <path d="M41.5533463,45.5933364 L32.9688463,45.4508364 C32.0088463,45.4358364 31.2168463,46.2008364 31.2018463,47.1608364 C31.1853463,48.1223364 31.9518463,48.9128364 32.9118463,48.9293364 L41.4948463,49.0703364 C42.4563463,49.0868364 43.2468463,48.3203364 43.2633463,47.3603364 C43.2783463,46.4003364 42.5133463,45.6083364 41.5533463,45.5933364" id="Fill-3"></path>
        </g>
    </g>
</svg>