<?xml version="1.0" encoding="UTF-8"?>
<svg width="46px" height="57px" viewBox="0 0 46 57" version="1.1" xmlns="http://www.w3.org/2000/svg" xmlns:xlink="http://www.w3.org/1999/xlink">
    <!-- Generator: Sketch 61.2 (89653) - https://sketch.com -->
    <title>Group 9 Copy 2</title>
    <desc>Created with Sketch.</desc>
    <defs>
        <polygon id="path-1" points="0.491358591 0.0492 41.8889626 0.0492 41.8889626 19.76262 0.491358591 19.76262"></polygon>
        <polygon id="path-3" points="0.69246 0.41256 20.34486 0.41256 20.34486 34.2 0.69246 34.2"></polygon>
    </defs>
    <g id="Page-1" stroke="none" stroke-width="1" fill="none" fill-rule="evenodd">
        <g id="Group-9-Copy-2">
            <path d="M10.8009,32.09802 C10.8009,30.13242 7.9893,25.00062 5.4009,20.95242 C2.8107,25.00062 0.0009,30.13062 0.0009,32.09802 C0.0009,35.08062 2.4183,37.49802 5.4009,37.49802 C8.3817,37.49802 10.8009,35.08062 10.8009,32.09802" id="Fill-1" fill="#E30620"></path>
            <g id="Group-5" transform="translate(3.600000, 0.551340)">
                <mask id="mask-2" fill="white">
                    <use xlink:href="#path-1"></use>
                </mask>
                <g id="Clip-4"></g>
                <path d="M39.45132,13.70562 L34.34472,13.70562 L34.34472,9.78702 L39.51072,9.78702 C40.63932,9.78702 41.58792,8.83662 41.58792,7.70802 L41.58792,2.12622 C41.58792,0.99762 40.63932,0.04902 39.51072,0.04902 L24.72552,0.04902 C23.59692,0.04902 22.64652,0.99762 22.64652,2.12622 L22.64652,2.54202 L9.11052,2.54202 C4.59612,2.54202 0.91512,5.98542 0.49752,10.38102 C0.43992,10.79682 0.79452,11.15322 1.21212,11.15322 L4.29912,11.15322 C4.65552,11.15322 4.95252,10.91562 5.01192,10.55922 C5.30892,8.53962 7.02972,6.99522 9.11052,6.99522 L22.64652,6.99522 L22.64652,7.70802 C22.64652,8.83662 23.59692,9.78702 24.72552,9.78702 L29.89152,9.78702 L29.89152,13.70562 L24.78672,13.70562 C23.42052,13.70562 22.23252,14.83422 22.23252,16.25802 L22.23252,18.69342 C22.23252,19.28742 22.70592,19.76262 23.29992,19.76262 L40.81752,19.76262 C41.41152,19.76262 41.88672,19.28742 41.88672,18.69342 L41.88672,16.25802 C41.94612,14.83422 40.81752,13.70562 39.45132,13.70562" id="Fill-3" fill="#E30620" mask="url(#mask-2)"></path>
            </g>
            <g id="Group-8" transform="translate(25.200000, 22.751340)">
                <mask id="mask-4" fill="white">
                    <use xlink:href="#path-3"></use>
                </mask>
                <g id="Clip-7"></g>
                <path d="M18.50526,0.41256 L2.53206,0.41256 C1.52226,0.41256 0.69246,1.24416 0.69246,2.25396 L0.69246,32.35896 C0.69246,33.36876 1.52226,34.20036 2.53206,34.20036 L18.50526,34.20036 C19.51506,34.20036 20.34486,33.36876 20.34486,32.35896 L20.34486,2.25396 C20.34486,1.24416 19.51506,0.41256 18.50526,0.41256" id="Fill-6" fill="#E30620" mask="url(#mask-4)"></path>
            </g>
        </g>
    </g>
</svg>