<?xml version="1.0" encoding="UTF-8"?>
<svg width="70px" height="25px" viewBox="0 0 70 25" version="1.1" xmlns="http://www.w3.org/2000/svg" xmlns:xlink="http://www.w3.org/1999/xlink">
    <!-- Generator: Sketch 61.2 (89653) - https://sketch.com -->
    <title>Group 11 Copy</title>
    <desc>Created with Sketch.</desc>
    <g id="Page-1" stroke="none" stroke-width="1" fill="none" fill-rule="evenodd">
        <g id="Group-11-Copy" fill="#E30620">
            <path d="M58.63155,0 L10.47405,0 C8.45505,0 6.81255,1.641 6.81255,3.66 L6.81255,17.298 C6.81255,19.0365 8.05455,20.5365 9.74955,20.883 L26.40105,24.219 C28.32255,24.6075 30.20205,23.409 30.67605,21.4875 C31.32405,18.843 32.87955,17.061 34.55205,17.061 C36.22605,17.061 37.78155,18.843 38.42805,21.4875 C38.84055,23.172 40.31805,24.2955 41.97105,24.2955 C42.20805,24.2955 42.45705,24.273 42.69405,24.219 L59.35455,20.883 C61.04955,20.5365 62.29155,19.0365 62.29155,17.298 L62.29155,3.66 C62.29155,1.641 60.65205,0 58.63155,0" id="Fill-21"></path>
            <path d="M4.6755,17.6865 L1.08,17.6865 C0.486,17.6865 -4.26325641e-14,17.2005 -4.26325641e-14,16.6065 L-4.26325641e-14,8.1525 C-4.26325641e-14,7.5585 0.486,7.0725 1.08,7.0725 L4.653,7.0725 L4.653,17.298 C4.653,17.4285 4.653,17.5575 4.6755,17.6865" id="Fill-23"></path>
            <path d="M69.1053,8.15265 L69.1053,16.60665 C69.1053,17.20065 68.6208,17.68665 68.0253,17.68665 L64.4313,17.68665 C64.4508,17.55765 64.4508,17.42865 64.4508,17.29815 L64.4508,7.07265 L68.0253,7.07265 C68.6208,7.07265 69.1053,7.55865 69.1053,8.15265" id="Fill-25"></path>
        </g>
    </g>
</svg>