<?xml version="1.0" encoding="UTF-8"?>
<svg width="42px" height="66px" viewBox="0 0 42 66" version="1.1" xmlns="http://www.w3.org/2000/svg" xmlns:xlink="http://www.w3.org/1999/xlink">
    <!-- Generator: Sketch 61.2 (89653) - https://sketch.com -->
    <title>lava_coche copy</title>
    <desc>Created with Sketch.</desc>
    <g id="Page-1" stroke="none" stroke-width="1" fill="none" fill-rule="evenodd">
        <g id="lava_coche-copy" fill="#E30620" fill-rule="nonzero">
            <path d="M5.308578,47.0448 C4.857732,46.948572 4.547664,46.877292 4.239378,46.816704 C3.061476,46.585044 2.489454,45.890064 2.525094,44.721072 C2.555388,43.714242 3.196908,43.07094 4.342734,42.906996 C4.48814816,42.8809961 4.63524733,42.865512 4.782888,42.860664 C7.5735,42.860664 6.686064,43.101234 7.862184,40.526244 C8.396784,39.348342 8.831592,38.093814 9.540828,37.024614 C10.663488,35.331714 12.618342,35.242614 14.387868,35.023428 C19.4244687,34.3925977 24.5255757,34.4886185 29.534868,35.308548 C31.446954,35.627526 32.765634,36.677124 33.455268,38.496546 C33.918588,39.71187 34.346268,40.946796 34.880868,42.128262 C35.026992,42.450804 35.48853,42.74127 35.85384,42.823242 C36.38844,42.944418 36.974718,42.844626 37.53783,42.871356 C38.742462,42.926598 39.5604,43.671474 39.638808,44.756712 C39.71187,45.740376 39.045402,46.517328 37.901358,46.78641 C36.757314,47.055492 36.849978,47.030544 37.174302,48.190626 C37.553868,49.550292 38.002932,50.940252 38.056392,52.330212 C38.191824,55.764126 38.154402,59.205168 38.10807,62.642646 C38.086686,64.226844 36.997884,65.153484 35.454672,65.10537 C34.188725,65.0554242 33.1731001,64.0421251 33.120252,62.776296 C33.036498,61.06914 33.036498,61.06023 31.338252,61.06023 C24.37182,61.06023 17.405982,61.06023 10.440738,61.06023 C9.118494,61.06023 9.118494,61.06023 9.054342,62.36109 C8.965242,64.155564 7.985142,65.157048 6.381342,65.110716 C5.153544,65.075076 4.007718,64.041516 3.997026,62.8155 C3.963168,59.199822 3.925746,55.582362 4.03623,51.968466 C4.07187,50.783436 4.545882,49.609098 4.843476,48.436542 C4.93614,48.00708 5.112558,47.600784 5.308578,47.0448 Z M20.990178,46.285668 L20.990178,46.285668 C24.60645,46.285668 28.222722,46.285668 31.838994,46.285668 C33.105996,46.285668 33.378642,45.882936 32.929578,44.706816 C32.403888,43.323984 31.860378,41.94828 31.3632,40.552974 C30.866022,39.157668 30.675348,38.99016 29.18916,38.99016 C25.6014,38.99016 22.014828,38.99016 18.429444,38.99016 C16.503102,38.99016 14.57676,38.99016 12.650418,38.99016 C11.759418,38.99016 11.142846,39.298446 10.838124,40.217958 C10.32669,41.76117 9.701208,43.26696 9.187992,44.810172 C8.756748,46.10034 8.922474,46.289232 10.319562,46.292796 C13.871088,46.28745 17.42796,46.282104 20.984832,46.282104 L20.990178,46.285668 Z M11.03949,52.665228 C10.9941625,51.4859471 10.0169896,50.557791 8.836938,50.57316 C7.783776,50.583852 6.814368,51.574644 6.805458,52.64919 C6.805458,53.818182 7.77843,54.833922 8.915346,54.833922 C10.0896893,54.7947968 11.0242875,53.8366175 11.034144,52.661664 L11.03949,52.665228 Z M35.27469,52.722252 C35.27469,51.540786 34.299936,50.541084 33.155892,50.557122 C32.074218,50.57316 31.124412,51.585336 31.119066,52.732944 C31.119066,53.836002 32.109858,54.844614 33.204006,54.8392892 C34.298154,54.833922 35.25687,53.839566 35.260434,52.718688 L35.27469,52.722252 Z" id="Shape"></path>
            <path d="M26.813754,12.425886 C26.5785301,12.4225321 26.3571798,12.3139764 26.2105164,12.1300432 C26.063853,11.9461101 26.0073035,11.7061467 26.056404,11.47608 C26.194522,11.0081281 26.5441797,10.6320812 27.000864,10.46034 C27.580014,10.310652 27.979182,10.800702 27.998784,11.403018 C28.018386,12.005334 27.717228,12.406284 26.813754,12.425886 Z" id="Path"></path>
            <path d="M22.171644,16.879104 C21.970278,17.711298 21.656646,18.208476 21.038292,18.074826 C20.648034,17.98929 20.035026,17.429742 20.079576,17.183826 C20.156202,16.772184 20.630214,16.228674 21.020472,16.148484 C21.341232,16.089678 21.783168,16.615368 22.171644,16.879104 Z" id="Path"></path>
            <path d="M18.937314,12.636162 C18.892764,13.265208 18.580914,13.646556 17.939394,13.630518 C17.376282,13.618044 16.980678,13.318668 16.980678,12.707442 C16.980678,12.096216 17.299656,11.675664 17.92692,11.661408 C18.554184,11.647152 18.8892,12.01068 18.937314,12.636162 Z" id="Path"></path>
            <path d="M13.928112,29.297862 C13.069188,29.155302 12.796542,28.740096 12.792978,28.189458 C12.792978,27.60318 13.072752,27.138078 13.744566,27.146988 C14.378958,27.146988 14.813766,27.581796 14.724666,28.157382 C14.664078,28.567242 14.207886,28.920078 13.928112,29.297862 Z" id="Path"></path>
            <path d="M29.351322,13.8996 C29.529522,14.133042 29.996406,14.46984 30.081942,14.883264 C30.208464,15.5034 29.682774,15.88653 29.107188,15.88653 C28.604664,15.88653 28.118178,15.631704 28.118178,14.97771 C28.118178,14.370048 28.36053,13.956624 29.351322,13.8996 Z" id="Path"></path>
            <path d="M22.143132,5.299668 C21.786732,5.545584 21.35727,6.048108 21.073932,5.97861 C20.658726,5.875254 20.345094,5.36382 19.988694,5.02524 C20.345094,4.690224 20.658726,4.148496 21.057894,4.070088 C21.658428,3.952476 21.99879,4.455 22.143132,5.299668 Z" id="Path"></path>
            <path d="M39.220038,18.37242 C38.8476,18.616554 38.418138,19.11195 38.111634,19.044234 C37.705338,18.955134 37.167174,18.47043 37.097676,18.080172 C37.00323,17.545572 37.441602,17.091162 38.100942,17.114328 C38.760282,17.137494 39.0258,17.5527 39.220038,18.37242 Z" id="Path"></path>
            <path d="M15.982758,11.492118 C15.93999,12.026718 15.626358,12.513204 15.006222,12.383118 C14.623092,12.2958 14.125914,11.821788 14.058198,11.452914 C14.0076743,11.1842777 14.0855994,10.907465 14.2688444,10.7046366 C14.4520894,10.5018081 14.7195961,10.3962726 14.991966,10.419354 C15.604974,10.41579 15.97563,10.752588 15.982758,11.492118 Z" id="Path"></path>
            <path d="M23.166,12.69675 C23.206986,12.026718 23.588334,11.73447 24.20847,11.7362439 C24.791184,11.7362439 25.291926,12.03741 25.147584,12.614778 C25.044228,13.024638 24.571998,13.53429 24.174612,13.630518 C23.613282,13.76595 23.198076,13.32936 23.166,12.69675 Z" id="Path"></path>
            <path d="M13.99761,15.232536 C13.7214,15.426774 13.365,15.8598 12.94623,15.936426 C12.290454,16.052256 12.005334,15.492708 12.01068,14.91534 C12.016026,14.337972 12.326094,13.978008 12.953358,13.960188 C13.6323,13.940586 13.8996,14.33619 13.99761,15.232536 Z" id="Path"></path>
            <path d="M20.692584,28.1556 C21.622788,28.176984 22.002354,28.478142 22.023738,29.128572 C22.045122,29.779002 21.613878,30.238758 21.06324,30.131838 C20.664072,30.055212 20.17224,29.524176 20.08314,29.116098 C20.015424,28.820286 20.530422,28.390824 20.692584,28.1556 Z" id="Path"></path>
            <path d="M22.011264,21.155904 C22.011264,21.774258 21.706542,22.080762 21.091752,22.084343 C20.476962,22.08789 19.844352,21.531906 20.0475,21.056112 C20.206098,20.669418 20.674764,20.220354 21.061458,20.165112 C21.62457,20.070666 22.036212,20.493 22.011264,21.155904 Z" id="Path"></path>
            <path d="M20.05641,9.004446 C19.70001,9.252144 19.381032,9.624582 18.98721,9.717246 C18.45261,9.84555 17.907318,9.236106 17.960778,8.676558 C18.023148,8.022564 18.495378,7.705368 19.053144,7.806942 C19.425582,7.87644 19.728522,8.31303 20.063538,8.585676 L20.05641,9.004446 Z" id="Path"></path>
            <path d="M32.15619,11.372724 C33.088176,11.41371 33.380424,11.7612 33.40359,12.395592 C33.426756,13.108392 32.93136,13.441626 32.416362,13.31154 C32.026104,13.211748 31.566348,12.677148 31.495068,12.272634 C31.441608,11.98395 31.983336,11.583 32.15619,11.372724 Z" id="Path"></path>
            <path d="M27.863352,6.81615 C27.489132,7.104834 27.150552,7.571718 26.737128,7.641216 C26.15085,7.739226 25.737426,7.249176 25.721388,6.662898 C25.703568,6.04098 26.134812,5.704182 26.749602,5.7024 C27.332316,5.7024 27.686934,5.998212 27.863352,6.81615 Z" id="Path"></path>
            <path d="M7.0389,26.323704 C6.310062,26.323704 6.024942,25.994034 6.021378,25.3935 C6.021378,24.759108 6.340356,24.374196 6.969402,24.370632 C7.598448,24.367068 7.953066,24.77871 7.942374,25.38459 C7.931682,25.99047 7.61805,26.386074 7.0389,26.323704 Z" id="Path"></path>
            <path d="M27.572886,25.293708 C26.58744,25.275888 26.325486,24.887412 26.309448,24.27084 C26.29341,23.654268 26.73,23.3442 27.2646,23.3442 C27.874044,23.32638 28.3338,23.764752 28.267866,24.327864 C28.212624,24.719904 27.743958,25.069176 27.572886,25.293708 Z" id="Path"></path>
            <path d="M12.131856,18.643284 C11.738034,18.901674 11.356686,19.340046 10.945044,19.372122 C10.410444,19.413108 9.93465,19.046016 9.977418,18.367074 C10.020186,17.688132 10.446084,17.447562 11.046618,17.476074 C11.632896,17.509932 11.96613,17.830692 12.131856,18.643284 Z" id="Path"></path>
            <path d="M9.90792,11.281842 C10.146708,11.638242 10.503108,11.967912 10.597554,12.351042 C10.72764,12.903462 10.093248,13.598442 9.629928,13.404204 C9.237888,13.245606 8.738928,12.771594 8.724672,12.415194 C8.710416,12.058794 9.205812,11.652498 9.478458,11.269368 L9.90792,11.281842 Z" id="Path"></path>
            <path d="M35.091144,26.3736 C34.545852,26.3736 34.16985,26.07957 34.159158,25.423794 C34.148466,24.821478 34.4817,24.45795 35.059068,24.445476 C35.636436,24.433002 36.128268,24.723468 36.140742,25.359642 C36.160344,25.951266 35.832456,26.348652 35.091144,26.3736 Z" id="Path"></path>
            <path d="M6.497172,14.231052 C7.423812,14.261346 7.792686,14.553594 7.80516,15.214716 C7.815852,15.838416 7.438068,16.169868 6.880302,16.193034 C6.261948,16.217982 5.802192,15.809904 5.864562,15.216498 C5.905548,14.824458 6.331446,14.473404 6.497172,14.231052 Z" id="Path"></path>
            <path d="M34.98066,14.200758 C35.930466,14.280948 36.342108,14.68368 36.18351,15.269958 C36.080154,15.644178 35.490312,16.201944 35.240832,16.14492 C34.839882,16.054038 34.314192,15.54795 34.26786,15.16482 C34.228656,14.836932 34.789986,14.4342 34.98066,14.200758 Z" id="Path"></path>
            <path d="M26.3736,16.729416 C25.97265,16.986024 25.561008,17.458254 25.177878,17.442216 C24.83217,17.420832 24.3243,16.907616 24.238764,16.522704 C24.09264,15.86871 24.684264,15.526566 25.240248,15.604974 C25.64298,15.660216 25.997598,16.068294 26.371818,16.317774 L26.3736,16.729416 Z" id="Path"></path>
            <path d="M40.704444,19.7802 C41.54733,19.944144 41.914422,20.255994 41.925114,20.895732 C41.935806,21.505176 41.55624,21.825936 40.993128,21.852666 C40.381902,21.881178 39.89007,21.50874 39.94353,20.927808 C39.97917,20.523294 40.435362,20.159766 40.704444,19.7802 Z" id="Path"></path>
            <path d="M25.988688,21.5622 C25.748118,21.191544 25.379244,20.8494 25.291926,20.446668 C25.156494,19.810494 25.671492,19.53963 26.21322,19.520028 C26.815536,19.498644 27.339444,19.853262 27.250344,20.459142 C27.189756,20.865438 26.699706,21.207582 26.402112,21.578238 L25.988688,21.5622 Z" id="Path"></path>
            <path d="M29.274696,8.5536 C30.208464,8.59815 30.532788,8.950986 30.547044,9.574686 C30.5613,10.171656 30.203118,10.643886 29.656044,10.520928 C29.24262,10.43361 28.697328,9.963162 28.626048,9.585378 C28.567242,9.2664 29.09115,8.828028 29.274696,8.5536 Z" id="Path"></path>
            <path d="M15.063246,25.33113 C14.14017,25.217082 13.826538,24.87672 13.851486,24.229854 C13.878216,23.547348 14.386086,23.206986 14.890392,23.319252 C15.246792,23.399442 15.749316,23.95899 15.756444,24.313608 C15.763572,24.668226 15.259266,25.067394 15.063246,25.33113 Z" id="Path"></path>
            <path d="M23.648922,2.840508 C24.563088,2.956338 24.853554,3.325212 24.846426,3.950694 C24.839298,4.576176 24.365286,4.94505 23.880582,4.82031 C23.479632,4.718736 22.945032,4.209084 22.914738,3.841992 C22.884444,3.4749 23.438646,3.104244 23.648922,2.840508 Z" id="Path"></path>
            <path d="M21.323412,24.040962 C21.556854,24.397362 21.932856,24.741288 21.986316,25.1262 C22.071852,25.733862 21.658428,26.138376 21.024036,26.116992 C20.389644,26.095608 19.954836,25.676838 20.040372,25.110162 C20.104524,24.710994 20.603484,24.383106 20.908206,24.023142 L21.323412,24.040962 Z" id="Path"></path>
            <path d="M22.84524,7.746354 C23.759406,7.833672 24.219162,8.184726 24.07482,8.781696 C23.9184333,9.20862648 23.5717914,9.53813393 23.137488,9.672696 C22.602888,9.77427 22.037994,9.387576 22.152042,8.754966 C22.225104,8.350452 22.659912,8.00118 22.84524,7.746354 Z" id="Path"></path>
            <path d="M16.339158,6.972966 C16.105716,7.151166 15.754662,7.594884 15.346584,7.655472 C15.0773111,7.7002104 14.8029619,7.61262938 14.609418,7.42014506 C14.4158742,7.22766074 14.3267884,6.95379647 14.370048,6.684282 C14.432418,6.327882 14.926032,5.857434 15.305598,5.762988 C15.872274,5.620428 16.310646,5.985738 16.339158,6.972966 Z" id="Path"></path>
            <path d="M1.297296,19.79802 C1.571724,20.143728 1.981584,20.452014 2.086722,20.842272 C2.264922,21.48201 1.782,21.866922 1.195722,21.911472 C0.57915,21.956022 0.126522,21.519432 0.179982,20.936718 C0.215622,20.542896 0.64152,20.188278 0.892782,19.81584 L1.297296,19.79802 Z" id="Path"></path>
            <path d="M15.715458,21.530124 C15.45885,21.173724 15.072156,20.861874 14.97771,20.473398 C14.828022,19.849698 15.234318,19.452312 15.86871,19.43271 C16.503102,19.413108 16.923654,19.85148 16.859502,20.425284 C16.814952,20.81376 16.383708,21.159468 16.1271,21.522996 L15.715458,21.530124 Z" id="Path"></path>
            <path d="M30.176388,18.472212 C30.158568,17.795052 30.520314,17.515278 31.160052,17.477856 C31.842558,17.438652 32.051052,17.887716 32.092038,18.420534 C32.140152,19.01394 31.783752,19.416672 31.201038,19.43271 C30.618324,19.448748 30.188862,19.144026 30.176388,18.472212 Z" id="Path"></path>
            <path d="M34.257168,21.729708 C34.155594,22.599324 33.738606,22.86306 33.187968,22.895136 C32.582088,22.930776 32.177574,22.593978 32.133024,21.964932 C32.08491,21.2949 32.562486,20.926026 33.104214,20.98305 C33.515856,21.0276 33.877602,21.465972 34.257168,21.729708 Z" id="Path"></path>
            <path d="M17.128584,15.419646 C17.378064,15.786738 17.796834,16.132446 17.841384,16.520922 C17.901972,17.076906 17.558046,17.524188 16.868412,17.484984 C16.20729,17.449344 15.845544,17.04483 15.977412,16.454988 C16.057602,16.068294 16.472808,15.75288 16.738326,15.40539 L17.128584,15.419646 Z" id="Path"></path>
            <path d="M29.417256,28.483488 C29.060856,28.722276 28.715148,29.107188 28.326672,29.16243 C27.735048,29.247966 27.321624,28.891566 27.34479,28.212624 C27.367956,27.533682 27.7992,27.18441 28.373004,27.29133 C28.759698,27.364392 29.076894,27.806328 29.424384,28.082538 C29.422602,28.216188 29.419038,28.349838 29.417256,28.483488 Z" id="Path"></path>
            <path d="M19.348956,4.055832 C18.96048,4.316004 18.55062,4.800708 18.187092,4.768632 C17.823564,4.736556 17.353116,4.193046 17.296092,3.815262 C17.199864,3.223638 17.698824,2.792394 18.30114,2.90466 C18.686052,2.977722 19.01394,3.375108 19.37034,3.62637 L19.348956,4.055832 Z" id="Path"></path>
            <path d="M22.014828,0.946242 C22.002354,1.618056 21.57111,2.029698 21.015126,1.92456 C20.646252,1.855062 20.159766,1.348974 20.09205,0.972972 C19.986912,0.384912 20.459142,-0.00891 21.088188,1.58429042e-16 C21.679812,0.00891 22.011264,0.342144 22.014828,0.946242 Z" id="Path"></path>
            <path d="M21.300246,11.953656 C21.537252,12.310056 21.911472,12.650418 21.975624,13.038894 C22.07898,13.662594 21.629916,14.120568 21.0276,13.97979 C20.648034,13.888908 20.165112,13.422024 20.088486,13.051368 C19.9584,12.43836 20.473398,12.13542 21.300246,11.953656 Z" id="Path"></path>
            <path d="M13.518252,9.171954 C13.518252,10.111068 13.21353,10.524492 12.584484,10.54944 C11.955438,10.574388 11.606166,10.105722 11.583,9.528354 C11.559834,8.950986 11.9394,8.521524 12.52746,8.608842 C12.931974,8.66943 13.28481,9.029394 13.518252,9.171954 Z" id="Path"></path>
            <path d="M5.157108,18.302922 C4.786452,18.55062 4.444308,18.949788 4.041576,19.015722 C3.408966,19.117296 3.05613,18.60408 3.063258,18.028494 C3.063258,17.41905 3.515886,16.998498 4.112856,17.137494 C4.503114,17.22303 4.825656,17.647146 5.1678,17.919792 L5.157108,18.302922 Z" id="Path"></path>
            <path d="M9.957816,21.9186 C9.922176,22.544082 9.544392,22.823856 8.97237,22.825638 C8.345106,22.825638 7.871094,22.442508 7.995834,21.854448 C8.07246,21.487356 8.583894,21.022254 8.965242,20.950974 C9.544392,20.8494 9.931086,21.280644 9.957816,21.9186 Z" id="Path"></path>
        </g>
    </g>
</svg>