<?xml version="1.0" encoding="UTF-8"?>
<svg width="67px" height="67px" viewBox="0 0 67 67" version="1.1" xmlns="http://www.w3.org/2000/svg" xmlns:xlink="http://www.w3.org/1999/xlink">
    <!-- Generator: Sketch 61.2 (89653) - https://sketch.com -->
    <title>Fill 20 Copy 3</title>
    <desc>Created with Sketch.</desc>
    <g id="Page-1" stroke="none" stroke-width="1" fill="none" fill-rule="evenodd">
        <g id="Fill-20-Copy-3" fill="#E30620">
            <path d="M6.93405,37.52025 C4.5771,37.52025 2.2173,37.93635 0,38.76855 L0,44.871825 L0,66.648675 L13.869525,66.648675 L13.869525,44.871825 C17.337975,46.67445 19.5567,50.281125 19.418475,54.165675 C19.418475,55.690425 20.666775,56.938725 22.19295,56.938725 C23.7177,56.938725 24.966,55.690425 24.966,54.165675 C24.966,44.7336 17.198325,37.52025 6.93405,37.52025 L6.93405,37.52025 Z M6.93405,34.745775 C9.9864,34.745775 12.483,32.249175 12.483,29.19825 C12.483,26.1459 9.9864,23.6493 6.93405,23.6493 C3.8817,23.6493 1.3851,26.1459 1.3851,29.19825 C1.3851,32.249175 3.8817,34.745775 6.93405,34.745775 L6.93405,34.745775 Z M66.577425,38.76855 C64.360125,37.93635 62.00175,37.52025 59.643375,37.52025 C49.3791,37.52025 41.611425,44.7336 41.611425,54.165675 C41.611425,55.690425 42.859725,56.938725 44.3859,56.938725 C45.912075,56.938725 47.160375,55.690425 47.160375,54.165675 C47.020725,50.281125 49.23945,46.67445 52.7079,44.871825 L52.7079,66.648675 L66.577425,66.648675 L66.577425,44.871825 L66.577425,38.76855 Z M65.192325,29.19825 C65.192325,26.1459 62.695725,23.6493 59.643375,23.6493 C56.59245,23.6493 54.09585,26.1459 54.09585,29.19825 C54.09585,32.249175 56.59245,34.745775 59.643375,34.745775 C62.695725,34.745775 65.192325,32.249175 65.192325,29.19825 L65.192325,29.19825 Z M54.09585,10.472325 L54.09585,10.472325 L54.09585,10.888425 C54.09585,11.02665 54.09585,11.1663 53.9562,11.304525 C53.81655,11.5824 53.67975,11.85885 53.40045,11.9985 L45.079875,20.3205 C44.247675,21.1527 42.999375,21.1527 42.167175,20.3205 C41.334975,19.4883 41.334975,18.24 42.167175,17.4078 L47.020725,12.552825 L19.5567,12.552825 L24.411675,17.4078 C25.243875,18.24 25.243875,19.4883 24.411675,20.3205 C23.579475,21.1527 22.331175,21.1527 21.498975,20.3205 L13.176975,11.9985 C12.8991,11.720625 12.760875,11.5824 12.621225,11.304525 C12.483,11.02665 12.483,10.7502 12.483,10.472325 C12.483,10.19445 12.483,9.916575 12.621225,9.77835 C12.760875,9.500475 12.8991,9.224025 13.176975,9.084375 L21.498975,0.762375 C22.331175,-0.069825 23.579475,-0.069825 24.411675,0.762375 C25.243875,1.594575 25.243875,2.8443 24.411675,3.6765 L19.5567,8.391825 L47.020725,8.391825 L42.167175,3.53685 C41.334975,2.70465 41.334975,1.45635 42.167175,0.62415 C42.999375,-0.20805 44.247675,-0.20805 45.079875,0.62415 L53.40045,8.94615 C53.67975,9.084375 53.81655,9.36225 53.9562,9.640125 C53.9562,9.77835 54.09585,9.916575 54.09585,10.056225 L54.09585,10.472325 Z" id="Fill-17"></path>
        </g>
    </g>
</svg>