<?xml version="1.0" encoding="UTF-8"?>
<svg width="57px" height="51px" viewBox="0 0 57 51" version="1.1" xmlns="http://www.w3.org/2000/svg" xmlns:xlink="http://www.w3.org/1999/xlink">
    <!-- Generator: Sketch 61.2 (89653) - https://sketch.com -->
    <title>Fill 22 Copy</title>
    <desc>Created with Sketch.</desc>
    <g id="Page-1" stroke="none" stroke-width="1" fill="none" fill-rule="evenodd">
        <g id="Fill-22-Copy" fill="#E30620">
            <path d="M48.366,29.4405 C48.234,27.36 47.7825,25.293 47.1015,23.4345 C51.2955,24.438 53.577,25.746 53.577,26.7765 C53.577,27.66 51.7935,28.6035 48.366,29.4405 M38.25,33.1515 L17.85,33.1515 C17.148,33.1515 16.5765,32.58 16.5765,31.875 C16.5765,31.1715 17.148,30.6 17.85,30.6 L38.25,30.6 C38.955,30.6 39.525,31.1715 39.525,31.875 C39.525,32.58 38.955,33.1515 38.25,33.1515 M34.425,40.8 L21.675,40.8 C20.9715,40.8 20.4,40.2285 20.4,39.5265 C20.4,38.8215 20.9715,38.25 21.675,38.25 L34.425,38.25 C35.13,38.25 35.7015,38.8215 35.7015,39.5265 C35.7015,40.2285 35.13,40.8 34.425,40.8 M21.675,22.9515 L34.425,22.9515 C35.13,22.9515 35.7015,23.523 35.7015,24.225 C35.7015,24.93 35.13,25.5 34.425,25.5 L21.675,25.5 C20.9715,25.5 20.4,24.93 20.4,24.225 C20.4,23.523 20.9715,22.9515 21.675,22.9515 M23.3505,8.0925 C25.0035,4.122 31.0335,4.101 32.727,8.0475 C33.006,8.697 32.7075,9.4455 32.0595,9.723 C31.4115,10.002 30.6615,9.7005 30.387,9.0555 C29.5815,7.173 26.493,7.1835 25.7055,9.0705 C25.434,9.7215 24.687,10.0275 24.036,9.759 C23.3865,9.486 23.0805,8.742 23.3505,8.0925 M7.6965,29.43 C4.308,28.5975 2.55,27.6585 2.55,26.7765 C2.55,25.7505 4.8105,24.456 8.949,23.4555 C8.2905,25.3095 7.8345,27.5055 7.6965,29.43 M45.801,20.5485 C45.7875,20.523 45.7755,20.49 45.7605,20.4645 C43.9065,17.2965 42.7965,15.393 41.7015,13.4985 L41.6565,13.4235 C40.65,11.682 40.6305,11.6415 37.044,5.4 C35.0445,1.9065 31.812,0 28.05,0 C24.198,0 21.1515,1.7715 18.96,5.493 C15.0225,12.1695 13.992,13.965 10.3155,20.5515 C3.7815,21.819 -6.39488462e-14,23.7885 -6.39488462e-14,26.7765 C-6.39488462e-14,29.3235 2.5635,30.921 7.719,32.085 C8.418,42.453 16.356,51 28.05,51 C39.7455,51 47.6835,42.453 48.3825,32.088 C53.553,30.921 56.1255,29.3265 56.1255,26.7765 C56.1255,23.787 52.341,21.816 45.801,20.5485" id="Fill-19"></path>
        </g>
    </g>
</svg>