<?xml version="1.0" encoding="UTF-8"?>
<svg width="69px" height="65px" viewBox="0 0 69 65" version="1.1" xmlns="http://www.w3.org/2000/svg" xmlns:xlink="http://www.w3.org/1999/xlink">
    <!-- Generator: Sketch 61.2 (89653) - https://sketch.com -->
    <title>Group 10</title>
    <desc>Created with Sketch.</desc>
    <g id="Page-1" stroke="none" stroke-width="1" fill="none" fill-rule="evenodd">
        <g id="Group-10" fill="#DA3020" fill-rule="nonzero">
            <g id="Recurso-2">
                <path d="M4.0824,45.7362 C4.1202,45.2862 4.1742,44.9424 4.176,44.5986 C4.176,42.5628 4.1598,40.5252 4.176,38.4894 C4.1868,37.2204 4.644,36.234 5.9544,35.7804 C6.25190573,35.6595765 6.49205746,35.4297262 6.6258,35.1378 C7.488,33.0678 9.1098,31.9554 11.16,31.2318 C15.1344,29.8296 19.08,28.3356 23.0292,26.874 C23.5242,26.694 23.8914,26.442 23.5602,25.8138 C22.4802,23.7762 22.4802,21.4938 22.1004,19.296 C21.834,17.766 21.663,16.2198 21.42,14.6862 C20.2968,7.6068 24.8562,1.4256 31.4532,0.2016 C37.8234,-0.981 44.6634,3.1302 45.9,10.3392 C46.1556,11.8386 45.9954,13.4406 45.8208,14.9742 C45.5184,17.6436 45.1008,20.3022 44.6418,22.9536 C44.462521,23.9217255 44.1819798,24.8683258 43.8048,25.7778 C43.5474,26.4312 43.7148,26.6778 44.325,26.9028 C48.5082,28.4256 52.677,29.9898 56.8638,31.5036 C58.5,32.094 59.7132,33.1236 60.4638,34.6806 C60.7518,35.2836 61.1244,35.6598 61.8318,35.8002 C63.2214,36.0738 63.855,36.9252 63.8712,38.4282 C63.8928,40.5252 63.9054,42.6222 63.8586,44.7174 C63.8388,45.5508 64.0638,45.8082 64.8936,45.5508 C65.9232,45.2322 66.8628,45.45 67.5558,46.3212 C68.2488,47.1924 68.193,48.1536 67.7916,49.1184 C66.4596,52.3188 65.0448,55.4886 63.8172,58.7286 C63.4572,59.6898 63.5616,60.8454 63.5328,61.9146 C63.4572,64.9134 63.9036,64.395 61.0128,64.4238 C57.4506,64.458 53.8866,64.3806 50.3226,64.3968 C49.5666,64.3968 49.2966,64.1358 49.329,63.4086 C49.365,62.541 49.3182,61.6698 49.3578,60.804 C49.3938,60.0102 49.0284,59.7474 48.2778,59.7636 C46.9908,59.7924 45.702,59.7636 44.415,59.7636 L19.8864,59.778 C18.7794,59.778 18.7488,59.8068 18.7434,60.9516 C18.7434,61.8192 18.7272,62.6886 18.7434,63.5562 C18.7596,64.1052 18.5994,64.3842 17.9892,64.3842 C13.7892,64.3842 9.5964,64.3992 5.4108,64.4292 C4.7376,64.4292 4.4622,64.1376 4.545,63.5058 C4.968,60.2802 3.8844,57.3858 2.5866,54.54 C1.8,52.8318 1.1088,51.0786 0.3744,49.3452 C-0.0828,48.2652 -0.2394,47.2014 0.5922,46.224 C1.386,45.2898 2.4138,45.3366 3.4722,45.603 C3.6198,45.639 3.7638,45.6678 4.0824,45.7362 Z M10.7082,34.02 C12.1176,35.3628 12.1176,35.3628 13.635,35.7768 C14.715,36.072 15.363,36.8568 15.4602,38.0538 C15.4962,38.493 15.543,38.8404 16.0866,38.817 C17.7498,38.7486 18.7308,40.3146 18.7182,41.805 C18.6714,46.665 18.7182,51.507 18.6948,56.358 C18.6948,57.1086 18.8748,57.438 19.6992,57.438 C29.1924,57.4164 38.685,57.4098 48.177,57.4182 C49.2768,57.4182 49.3524,57.3246 49.3524,56.2446 C49.3596,51.4242 49.3692,46.6032 49.3812,41.7816 C49.3902,39.8844 50.04,39.1104 51.8886,38.8062 C52.407,38.7198 52.5852,38.5128 52.6086,37.9998 C52.6878,36.7092 53.5518,35.6868 54.8028,35.7318 C56.0538,35.7768 56.322,34.9452 56.8728,34.1748 C56.6373952,34.0099337 56.3887461,33.8648382 56.1294,33.741 C52.8522,32.5242 49.572,31.3146 46.2888,30.1122 C45.7218,29.9034 45.3492,30.0852 45.018,30.6 C41.6484,35.8668 38.2674,41.1258 34.875,46.377 C34.092,47.5902 33.228,47.592 32.4504,46.3878 C29.0988,41.1876 25.74,36 22.4118,30.7692 C21.9438,30.0348 21.5118,29.9142 20.7234,30.2184 C18.2124,31.1814 15.669,32.0598 13.14,32.994 C12.3606,33.2856 11.601,33.6438 10.7082,34.02 Z M6.0066,53.3826 L5.6844,53.4474 C4.8852,51.6582 4.0824,49.8708 3.2904,48.0798 C3.0744,47.5956 2.844,47.052 2.2104,47.3004 C1.5318,47.5614 1.8,48.1626 1.98,48.6 C3.1248,51.39 4.2768,54.18 5.4918,56.9394 C5.6448,57.285 6.1794,57.681 6.5412,57.6846 C9.7128,57.7152 12.8862,57.6558 16.0596,57.6378 C16.7562,57.6378 16.9956,57.3048 16.9920399,56.6334 C16.965,51.7248 16.9578,46.8144 16.9434,41.9058 C16.9434,41.346 16.893,40.689 16.2234,40.662 C15.4872,40.635 15.5034,41.3154 15.5034,41.8608 C15.5034,43.3008 15.4656,44.7408 15.516,46.1808 C15.5394,46.872 15.1992,46.962 14.6502,46.989 C14.0454,47.0196 13.7376,46.809 13.7736,46.1808 C13.7862,45.972 13.7736,45.7614 13.7736,45.5526 C13.7736,43.1874 13.7688,40.8222 13.7592,38.457 C13.7592,37.9584 13.5792,37.5408 13.0104,37.5354 C12.4416,37.53 12.2904,37.9566 12.2904,38.4588 C12.2904,38.727 12.2796,38.9988 12.2796,39.267 C12.2796,41.571 12.2796,43.8768 12.3048,46.1826 C12.3048,46.9242 11.8908,46.9764 11.3184,46.98 C10.746,46.9836 10.5624,46.7352 10.5642,46.1646 C10.5768,43.2306 10.5552,40.2966 10.5408,37.3626 C10.5408,37.0944 10.6056,36.7776 10.4886,36.5688 C10.332,36.2898 10.026,36.0936 9.7848,35.8614 C9.5706,36.0846 9.2304,36.279 9.1728,36.5364 C9.0801226,37.0662447 9.04691674,37.6047833 9.0738,38.142 C9.0738,40.7772 9.0738,43.4106 9.1188,46.044 C9.1296,46.764 8.8344,46.989 8.1684,47.0034 C7.4592,47.0196 7.3152,46.6542 7.335,46.0476 C7.3638,45.1818 7.3512,44.3124 7.3494,43.4448 C7.3494,41.7672 7.3692,40.0896 7.2972,38.4156 C7.2846,38.115 6.8724,37.8288 6.6438,37.5372 C6.417,37.8342 6.1812,38.1258 5.967,38.4372 C5.9238,38.4966 5.9562,38.6172 5.9562,38.7018 L6.0102,50.7348 C6.0102,51.6114 6.0066,52.497 6.0066,53.3826 Z M62.2926,53.6058 L62.0154,53.5662 C62.0154,52.6842 62.0154,51.8004 62.0154,50.9184 C62.0334,46.818 62.0502,42.7176 62.0658,38.6172 C62.0658,38.142 62.0928,37.5624 61.416,37.5372 C60.7392,37.512 60.7392,38.088 60.7338,38.5686 C60.7068,41.0526 60.6708,43.5366 60.678,46.0206 C60.678,46.6956 60.498,46.9908 59.769,46.9926 C59.04,46.9944 58.869,46.6632 58.869,46.008 C58.9014,43.308 58.905,40.6188 58.9158,37.9242 C58.9158,37.5066 58.9788,37.0602 58.8528,36.6786 C58.752,36.369 58.4118,36.1386 58.1778,35.874 C57.9636,36.1602 57.6684,36.414 57.5604,36.7362 C57.4524,37.0584 57.528,37.4472 57.528,37.8072 C57.528,40.5306 57.5064,43.2558 57.528,45.9792 C57.528,46.6146 57.4236,46.9836 56.6622,46.9926 C55.8558,47.0016 55.7298,46.6146 55.7406,45.936 C55.7748,43.5114 55.7766,41.0868 55.7748,38.6622 C55.7748,38.1402 55.7118,37.5462 55.0314,37.5372 C54.324,37.5372 54.3114,38.1222 54.3114,38.6514 C54.3114,41.1354 54.2826,43.6212 54.2988,46.1052 C54.2988,46.6956 54.1548,46.9962 53.5068,46.9908 C52.902,46.9908 52.5492,46.8504 52.5654,46.1412 C52.5978,44.676 52.5654,43.209 52.578,41.742 C52.578,41.2308 52.5096,40.6818 51.9066,40.662 C51.2694,40.6368 51.0966,41.1732 51.0948,41.742 C51.0804,46.7712 51.0666,51.8004 51.0534,56.8296 C51.0534,57.4236 51.2784,57.6972 51.9048,57.6954 C55.0476,57.6954 58.1904,57.7122 61.3332,57.7460175 C61.9992,57.7548 62.3754,57.4848 62.6256,56.8782 C63.5706,54.5868 64.548,52.308 65.5056,50.022 C65.727,49.5 66.015,48.9888 66.1302,48.4434 C66.204,48.0996 66.1302,47.5092 65.916,47.3634 C65.4228,47.043 65.0286,47.4084 64.7982,47.9034 C64.7478,48.0096 64.7226,48.1302 64.674,48.24 C63.8856,50.0232 63.0918,51.8118 62.2926,53.6058 Z M43.7202,12.357 L43.8174,12.3372 C43.6374,11.3436 43.5186,10.3302 43.2468,9.36 C41.6628,3.7044 34.6284,0.6786 29.3868,3.2778 C25.9938,4.9608 23.004,8.8074 23.7204,13.9266 C23.8212,14.6466 24.0408,14.8644 24.7356,14.724 C27.5562,14.1516 30.3066,13.3326 32.868,12.024 C34.5924,11.1474 36.1998,10.044 37.8612,9.045 C38.5812,8.6166 39.258,8.6958 39.6072,9.2628 C40.0356,9.9594 39.7872,10.512 39.1932,10.9746 C38.9240526,11.2132745 38.6389958,11.4333816 38.34,11.6334 C37.6398,12.0438 37.6812,12.465 38.2428,12.96 C39.5748,14.1372 41.193,14.625 42.8994,14.8554 C43.0974,14.8824 43.5042,14.4954 43.56,14.2308 C43.6932,13.6242 43.677,12.9852 43.7202,12.357 Z M33.5952,43.7976 C33.807395,43.581808 34.0063576,43.3533918 34.191,43.1136 C37.0602,38.6652 39.9198,34.2126 42.7698,29.7558 C42.903,29.547 42.8868,28.9818 42.7896,28.9422 C42.4659939,28.8004834 42.1045237,28.7700971 41.7618,28.8558 C41.4792,28.9458 41.2776,29.2842 41.0292,29.4984 C39.2094,31.0644 37.1214,32.0058 34.713,32.1984 C31.2966,32.4804 28.3476,31.44 25.866,29.0772 C25.173,28.4184 24.9174,28.4652 24.246,29.2896 L33.5952,43.7976 Z M33.5502,20.9736 C35.9316,20.7936 38.2536,20.6136 40.5702,20.4336 C42.6276,20.2842 42.687,20.2014 42.9696,18.1962 C43.0722,17.4762 42.8202,17.2332 42.156,17.1342 C39.7512,16.7742 37.6398,15.8112 35.973,13.9986 C35.595,13.5864 35.253,13.4784 34.7238,13.7448 C31.6206,15.3324 28.3338,16.389 24.9282,17.1018 C24.678078,17.15484 24.4636801,17.3146519 24.3414,17.5392 C24.1099992,18.1476632 24.1769609,18.8293867 24.5223285,19.3811973 C24.8676962,19.9330079 25.4515927,20.2911919 26.1,20.349 C28.5876,20.5938 31.0896,20.772 33.5502,20.9736 Z M32.9742,29.9106 C35.1252,29.9304 36.5616,29.5704 37.8972,28.8306 C39.9170211,27.7226816 41.426825,25.8727039 42.1074,23.6718 C42.3468,22.941 42.129,22.6044 41.499,22.6656 C40.5468,22.7556 39.5964,22.8546 38.6478,22.9716 C34.5186,23.4738 30.4002,23.2488 26.2908,22.7664 C25.101,22.626 24.93,22.7916 25.3386,23.9688 C26.5752,27.5166 29.8152,29.853 32.9742,29.9106 Z M56.403,62.586 L56.403,62.6166 C56.943,62.6166 57.483,62.6166 58.023,62.6166 C58.59,62.6166 59.157,62.6292 59.724,62.6346 C61.9794,62.658 61.695,62.7858 61.7526,60.6114 C61.776,59.7672 61.5168,59.4396 60.6474,59.4486 C58.1706,59.4738 55.6938,59.4144 53.2152,59.4288 C50.8266,59.4414 51.0984,59.0958 51.066,61.5708 C51.057,62.3754 51.3612,62.6148 52.1118,62.5968 C53.5374,62.5626 54.9702,62.586 56.403,62.586 Z M11.664,59.4468 L11.664,59.4684 L8.2584,59.4684 C5.9706,59.4684 6.3072,59.3046 6.3054,61.5114 C6.3054,62.3574 6.6042,62.6688 7.4628,62.6526 C9.9414,62.6004 12.4218,62.6346 14.9022,62.6004 C17.1702,62.568 16.9956,62.9874 17.01,60.3846 C17.01,59.6916 16.7472,59.4234 16.0542,59.4378 C14.5926,59.4666 13.1274,59.4468 11.664,59.4468 Z" id="Shape"></path>
            </g>
        </g>
    </g>
</svg>