<?xml version="1.0" encoding="UTF-8"?>
<svg width="71px" height="74px" viewBox="0 0 71 74" version="1.1" xmlns="http://www.w3.org/2000/svg" xmlns:xlink="http://www.w3.org/1999/xlink">
    <!-- Generator: Sketch 61.2 (89653) - https://sketch.com -->
    <title>Group 12 Copy</title>
    <desc>Created with Sketch.</desc>
    <g id="Page-1" stroke="none" stroke-width="1" fill="none" fill-rule="evenodd">
        <g id="Group-12-Copy" fill="#E30620">
            <path d="M30.9453,3.60615 C34.6023,3.39015 37.7433,6.18165 37.9593,9.84015 C38.1738,13.49865 35.3838,16.63815 31.7268,16.85415 C28.0668,17.07015 24.9258,14.27865 24.7113,10.62015 C24.4953,6.96165 27.2883,3.82215 30.9453,3.60615" id="Fill-44"></path>
            <path d="M23.41755,57.04575 L22.93755,60.90975 C22.79655,62.10975 23.64255,63.16875 24.84255,63.38025 L25.12605,63.38025 C26.18355,63.38025 27.17205,62.60475 27.31455,61.47525 L28.52955,51.68175 L23.41755,57.04575 Z" id="Fill-45"></path>
            <path d="M25.45515,38.3016 L23.64315,21.4521 C23.50065,20.2521 22.44165,19.4046 21.24165,19.4766 C20.04315,19.6161 19.19565,20.6766 19.26615,21.8751 L21.48165,42.4701 L25.45515,38.3016 Z" id="Fill-46"></path>
            <path d="M41.71335,45.73425 L34.19985,45.73425 L30.02835,50.10975 L36.20685,50.10975 L37.61985,61.47525 C37.75935,62.60475 38.67885,63.38025 39.80685,63.38025 L40.08885,63.38025 C41.28885,63.23925 42.13635,62.10975 41.99385,60.90975 L40.58235,50.10975 L41.71335,50.10975 C42.91335,50.10975 43.90185,49.12275 43.90185,47.92125 C43.90185,46.72275 42.91335,45.73425 41.71335,45.73425" id="Fill-47"></path>
            <path d="M37.71735,25.43745 C36.68535,20.81445 34.78335,18.19095 31.33635,18.27645 C27.03135,18.41745 26.25285,20.18145 26.25285,22.51095 C26.25285,24.60495 26.70435,31.37595 27.21285,36.45795 L37.71735,25.43745 Z" id="Fill-48"></path>
            <path d="M42.40335,37.1283 L35.87835,43.9728 C36.61035,43.9653 37.35735,43.9578 38.11335,43.9698 C42.98385,44.0403 44.60685,43.9698 46.30185,44.3928 C46.51185,47.1453 46.23135,53.9928 45.80685,59.7813 C45.66585,61.6158 47.07735,63.3108 48.91185,63.4518 L49.19535,63.4518 C50.95935,63.4518 52.44135,62.1108 52.58235,60.3453 C53.42985,49.4748 53.42985,42.9108 52.44135,40.8633 C51.24435,38.4678 48.50685,37.4973 42.40335,37.1283" id="Fill-49"></path>
            <polygon id="Fill-50" points="4.146 73.1085 -4.26325641e-14 69.1545 65.9265 0 70.071 3.9525"></polygon>
        </g>
    </g>
</svg>